<?xml version="1.0" encoding="UTF-8" standalone="no"?>
<!DOCTYPE svg PUBLIC "-//W3C//DTD SVG 1.1//EN" "http://www.w3.org/Graphics/SVG/1.1/DTD/svg11.dtd">
<svg width="100%" height="100%" viewBox="0 0 2161 2262" version="1.1" xmlns="http://www.w3.org/2000/svg" xmlns:xlink="http://www.w3.org/1999/xlink" xml:space="preserve" xmlns:serif="http://www.serif.com/" style="fill-rule:evenodd;clip-rule:evenodd;stroke-linejoin:round;stroke-miterlimit:2;">
    <g transform="matrix(1,0,0,1,-259.415,-103.212)">
        <g transform="matrix(4.16667,0,0,4.16667,0,0)">
            <path d="M265.289,144.931L265.292,144.938C265.609,145.76 290.597,210.853 315.442,296.14C327.865,338.779 340.251,386.465 349.506,433.611C358.767,480.746 364.871,527.373 364.861,567.606L387.173,567.606C387.164,524.992 380.776,476.991 371.289,428.748C357.047,356.407 335.776,283.576 318.057,228.727C300.338,173.887 286.166,137.057 286.113,136.917L265.289,144.931Z" style="fill:rgb(31,106,51);fill-rule:nonzero;"/>
            <path d="M399.28,217.395C399.079,217.73 371.384,262.742 343.617,328.851C329.735,361.911 315.833,400.251 305.369,440.989C294.91,481.73 287.874,524.874 287.868,567.606L310.18,567.606C310.175,527.334 316.858,485.931 326.979,446.54C342.15,387.446 365.03,332.909 384.107,293.265C393.643,273.441 402.225,257.334 408.404,246.215C411.493,240.655 413.982,236.343 415.689,233.436C416.542,231.982 417.2,230.88 417.64,230.149C417.86,229.783 418.025,229.511 418.133,229.333L418.252,229.139L418.278,229.095L418.283,229.087L416.118,227.757L418.283,229.089L418.283,229.087L416.118,227.757L418.283,229.089L399.28,217.395Z" style="fill:rgb(31,106,51);fill-rule:nonzero;"/>
            <path d="M268.347,128.125C250.845,129.61 238.356,108.566 245.961,89.934C257.409,61.892 265.772,32.007 252.041,27.173C225.194,17.722 160.051,33.897 115.727,116.533C52.931,233.609 62.828,382.995 62.828,382.995C62.828,382.995 125.236,347.635 207.343,293.381C237.925,273.172 318.23,209.38 340.815,174.398C357.865,147.99 316.378,124.048 268.347,128.125Z" style="fill:rgb(31,106,51);fill-rule:nonzero;"/>
            <path d="M432.984,212.885C448.596,223.887 470.049,214.226 471.658,195.195C474.078,166.551 480.231,138.181 495.278,142.059C524.698,149.643 577.837,199.029 580.57,289.382C584.442,417.389 505.519,530.186 505.519,530.186C505.519,530.186 463.88,467.136 412.706,378.058C393.646,344.879 348.6,249.256 343.883,208.862C340.322,178.368 390.141,182.691 432.984,212.885Z" style="fill:rgb(31,106,51);fill-rule:nonzero;"/>
            <path d="M304.177,235.452C284.255,218.631 270.686,210.685 242.858,218.636C189.288,233.941 180.105,282.92 181.635,342.612C182.962,394.356 206.121,460.205 215.946,478.886C262.674,408.744 291.084,323.381 304.177,235.452Z" style="fill:rgb(239,63,64);fill-rule:nonzero;"/>
            <path d="M224.149,482.012C327.039,471.18 386.497,440.428 424.995,406.896C472.443,365.57 480.096,313.531 447.954,279.858C440.182,271.716 429.519,266.846 417.858,264.065C338.346,312.853 272.828,397.058 224.149,482.012Z" style="fill:rgb(239,63,64);fill-rule:nonzero;"/>
            <path d="M339.552,301.157C325.987,311.794 310.6,303.57 313.055,286.509C316.056,265.652 312.172,242.203 304.177,235.452C291.084,323.381 262.674,408.744 215.946,478.886C217.454,481.755 218.369,483.424 218.369,483.424C218.369,483.424 220.49,482.918 224.149,482.012C272.828,397.058 338.346,312.853 417.858,264.065C398.642,259.483 366.102,280.338 339.552,301.157Z" style="fill:rgb(241,95,88);fill-rule:nonzero;"/>
            <path d="M191.521,277.83C156.001,289.413 179.452,302.69 193.186,298.569C209.607,293.643 225.331,292.071 239.852,292.394C258,286.025 276.148,279.18 294.296,274.757C267.898,268.238 231.361,264.839 191.521,277.83Z" style="fill:rgb(255,244,98);fill-rule:nonzero;"/>
            <path d="M328.862,286.758C321.759,283.46 309.759,278.575 294.296,274.757C276.148,279.18 258,286.025 239.852,292.394C277.76,293.234 307.209,307.399 317.479,311.617C335.187,318.889 348.089,295.685 328.862,286.758Z" style="fill:rgb(255,246,126);fill-rule:nonzero;"/>
        </g>
    </g>
</svg>
