<?xml version="1.0" encoding="UTF-8" standalone="no"?>
<!DOCTYPE svg PUBLIC "-//W3C//DTD SVG 1.1//EN" "http://www.w3.org/Graphics/SVG/1.1/DTD/svg11.dtd">
<svg width="100%" height="100%" viewBox="0 0 84 102" version="1.1" xmlns="http://www.w3.org/2000/svg" xmlns:xlink="http://www.w3.org/1999/xlink" xml:space="preserve" xmlns:serif="http://www.serif.com/" style="fill-rule:evenodd;clip-rule:evenodd;stroke-linecap:round;stroke-linejoin:round;stroke-miterlimit:1.5;">
    <g transform="matrix(1,0,0,1,-532.024,-582.881)">
        <g transform="matrix(1.5654,0,0,1.5654,1.17568,371.558)">
            <g transform="matrix(0.319406,0,0,0.319406,287.644,99.1635)">
                <g transform="matrix(1.1228,0,0,1.1228,-30.0044,-28.5535)">
                    <path d="M243.763,172.583C257.507,172.583 264.555,167.936 282.299,169.482C306.026,171.55 323.307,183.091 317.203,221.496C312.569,250.648 299.557,277.011 285.645,286.576C271.264,296.464 259.839,295.871 243.763,295.871C225.949,295.871 211.456,294.697 200.074,284.18C188.084,273.102 178.547,258.724 171.447,221.496C166.628,196.222 175.505,169.047 210.707,169.208C225.532,169.276 228.063,172.583 243.763,172.583Z" style="fill:white;"/>
                </g>
                <path d="M238.915,300.907L244.338,295.312L244.338,301.545L244.338,295.312L249.369,300.661" style="stroke:white;stroke-width:27.56px;"/>
                <path d="M244.338,177.302C244.338,177.302 243.213,156.38 238.915,150.155C232.773,141.259 225.641,142.639 225.641,142.639" style="fill:none;stroke:white;stroke-width:27.56px;"/>
                <g transform="matrix(1.132,1.132,-1.132,1.132,125.932,-318.143)">
                    <path d="M264.675,115.59C264.675,115.59 285.649,133.944 285.649,151.096C285.649,156.734 280.827,163.969 272.259,164.153C269.789,164.207 269.585,163.166 264.675,163.166C261.74,163.166 257.372,163.713 254.741,163.848C248.453,164.171 243.505,158.808 243.505,150.988C243.505,134.377 264.675,115.59 264.675,115.59Z" style="fill:white;"/>
                </g>
                <path d="M238.915,300.907L244.338,295.312L244.338,301.545L244.338,295.312L249.369,300.661" style="fill:rgb(169,51,59);stroke:black;stroke-width:12px;"/>
                <path d="M244.338,177.302C244.338,177.302 243.213,156.38 238.915,150.155C232.773,141.259 225.641,142.639 225.641,142.639" style="fill:none;stroke:rgb(49,20,16);stroke-width:12px;"/>
                <path d="M243.763,172.583C257.507,172.583 264.555,167.936 282.299,169.482C306.026,171.55 323.307,183.091 317.203,221.496C312.569,250.648 299.557,277.011 285.645,286.576C271.264,296.464 259.839,295.871 243.763,295.871C225.949,295.871 211.456,294.697 200.074,284.18C188.084,273.102 178.547,258.724 171.447,221.496C166.628,196.222 175.505,169.047 210.707,169.208C225.532,169.276 228.063,172.583 243.763,172.583Z" style="fill:rgb(239,50,54);"/>
                <clipPath id="_clip1">
                    <path d="M243.763,172.583C257.507,172.583 264.555,167.936 282.299,169.482C306.026,171.55 323.307,183.091 317.203,221.496C312.569,250.648 299.557,277.011 285.645,286.576C271.264,296.464 259.839,295.871 243.763,295.871C225.949,295.871 211.456,294.697 200.074,284.18C188.084,273.102 178.547,258.724 171.447,221.496C166.628,196.222 175.505,169.047 210.707,169.208C225.532,169.276 228.063,172.583 243.763,172.583Z"/>
                </clipPath>
                <g clip-path="url(#_clip1)">
                    <rect x="154.059" y="149.273" width="90.279" height="177.303" style="fill:rgb(194,48,58);"/>
                </g>
                <path d="M243.189,165.703L253.632,152.532" style="fill:none;stroke:rgb(49,20,16);stroke-width:12px;"/>
                <g transform="matrix(0.707107,0.707107,-0.707107,0.707107,178.918,-146.294)">
                    <path d="M264.675,115.59C264.675,115.59 285.649,133.944 285.649,151.096C285.649,156.734 280.827,163.969 272.259,164.153C269.789,164.207 269.585,163.166 264.675,163.166C261.74,163.166 257.372,163.713 254.741,163.848C248.453,164.171 243.505,158.808 243.505,150.988C243.505,134.377 264.675,115.59 264.675,115.59Z" style="fill:rgb(137,201,87);"/>
                    <clipPath id="_clip2">
                        <path d="M264.675,115.59C264.675,115.59 285.649,133.944 285.649,151.096C285.649,156.734 280.827,163.969 272.259,164.153C269.789,164.207 269.585,163.166 264.675,163.166C261.74,163.166 257.372,163.713 254.741,163.848C248.453,164.171 243.505,158.808 243.505,150.988C243.505,134.377 264.675,115.59 264.675,115.59Z"/>
                    </clipPath>
                    <g clip-path="url(#_clip2)">
                        <g transform="matrix(1,0,0,1.25616,-0.517853,-16.16)">
                            <rect x="233.233" y="104.295" width="31.365" height="45.936" style="fill:rgb(131,171,75);"/>
                        </g>
                    </g>
                </g>
            </g>
        </g>
    </g>
</svg>
