<?xml version="1.0" encoding="UTF-8" standalone="no"?>
<!DOCTYPE svg PUBLIC "-//W3C//DTD SVG 1.1//EN" "http://www.w3.org/Graphics/SVG/1.1/DTD/svg11.dtd">
<svg width="100%" height="100%" viewBox="0 0 54 135" version="1.1" xmlns="http://www.w3.org/2000/svg" xmlns:xlink="http://www.w3.org/1999/xlink" xml:space="preserve" xmlns:serif="http://www.serif.com/" style="fill-rule:evenodd;clip-rule:evenodd;stroke-linejoin:round;stroke-miterlimit:2;">
    <g transform="matrix(1,0,0,1,-455.355,-590.724)">
        <g transform="matrix(1.5654,0,0,1.5654,1.17568,371.558)">
            <g transform="matrix(0.172318,0.268936,-0.268936,0.172318,396.17,40.3515)">
                <path d="M132.433,392.057L129.521,379.16C129.141,376.501 130.142,373.65 133.827,372.169L144.257,369.827C147.87,369.153 149.329,371.135 150.149,373.353L153.541,384.559C167.744,389.18 189.874,424.953 238.54,456.116C296.328,493.119 370.695,488.377 364.518,504.895C348.837,546.826 251.13,563.409 192.19,516.725C136.307,472.461 120.585,410.797 132.433,392.057Z" style="fill:rgb(254,251,238);"/>
                <path d="M139.061,392.057L136.149,380.055C135.842,378.791 136.62,377.515 137.884,377.209L142.466,376.097C143.73,375.79 145.006,376.568 145.312,377.832L147.987,388.858C162.19,393.479 185.325,430.986 233.992,462.148C291.78,499.152 358.841,492.087 352.126,508.394C341.344,534.58 254.279,555.012 195.339,508.327C139.456,464.063 129.363,406.856 139.061,392.057Z" style="fill:rgb(236,195,45);"/>
                <clipPath id="_clip1">
                    <path d="M139.061,392.057L136.149,380.055C135.842,378.791 136.62,377.515 137.884,377.209L142.466,376.097C143.73,375.79 145.006,376.568 145.312,377.832L147.987,388.858C162.19,393.479 185.325,430.986 233.992,462.148C291.78,499.152 358.841,492.087 352.126,508.394C341.344,534.58 254.279,555.012 195.339,508.327C139.456,464.063 129.363,406.856 139.061,392.057Z"/>
                </clipPath>
                <g clip-path="url(#_clip1)">
                    <g transform="matrix(1.0241,0,0,0.932363,6.72724,18.6387)">
                        <path d="M133.127,400.419L129.271,382.766C128.964,381.502 136.62,377.515 137.884,377.209L142.466,376.097C143.73,375.79 145.006,376.568 145.312,377.832L147.987,388.858C162.19,393.479 185.325,430.986 233.992,462.148C291.78,499.152 343.485,509.667 339.006,526.875C337.989,530.785 248.47,549.787 196.541,507.227C141.321,461.97 135.139,419.025 133.127,400.419Z" style="fill:rgb(251,213,40);"/>
                    </g>
                </g>
            </g>
        </g>
    </g>
</svg>
