<?xml version="1.0" encoding="UTF-8" standalone="no"?>
<!DOCTYPE svg PUBLIC "-//W3C//DTD SVG 1.1//EN" "http://www.w3.org/Graphics/SVG/1.1/DTD/svg11.dtd">
<svg width="100%" height="100%" viewBox="0 0 185 138" version="1.1" xmlns="http://www.w3.org/2000/svg" xmlns:xlink="http://www.w3.org/1999/xlink" xml:space="preserve" xmlns:serif="http://www.serif.com/" style="fill-rule:evenodd;clip-rule:evenodd;stroke-linejoin:round;stroke-miterlimit:2;">
    <g transform="matrix(1,0,0,1,-430.911,-745.224)">
        <g transform="matrix(1.5654,0,0,1.5654,1.17568,371.558)">
            <g transform="matrix(-0.342231,4.19112e-17,-4.19112e-17,-0.342231,479.597,340.228)">
                <path d="M587.04,275.643C595.097,255.401 599.235,233.814 599.235,212.028C599.235,87.223 522.155,40.007 427.215,40.007C332.274,40.007 255.194,89.052 255.194,212.028C255.194,233.814 259.333,255.401 267.389,275.643L587.04,275.643Z" style="fill:white;"/>
            </g>
            <g transform="matrix(0.342231,0,0,0.40377,187.185,187.413)">
                <path d="M599.235,139.635C599.235,132.677 592.57,127.028 584.361,127.028L270.068,127.028C261.859,127.028 255.194,132.677 255.194,139.635L255.194,157.19C255.194,164.148 261.859,169.797 270.068,169.797L584.361,169.797C592.57,169.797 599.235,164.148 599.235,157.19L599.235,139.635Z" style="fill:white;"/>
            </g>
            <g transform="matrix(0.319406,0,0,0.319406,196.936,201.18)">
                <g transform="matrix(-1,1.22465e-16,-1.22465e-16,-1,854.429,424.055)">
                    <path d="M587.04,275.643C595.097,255.401 599.235,233.814 599.235,212.028C599.235,87.223 522.155,40.007 427.215,40.007C332.274,40.007 255.194,89.052 255.194,212.028C255.194,233.814 259.333,255.401 267.389,275.643L587.04,275.643Z" style="fill:rgb(122,66,5);"/>
                    <clipPath id="_clip1">
                        <path d="M587.04,275.643C595.097,255.401 599.235,233.814 599.235,212.028C599.235,87.223 522.155,40.007 427.215,40.007C332.274,40.007 255.194,89.052 255.194,212.028C255.194,233.814 259.333,255.401 267.389,275.643L587.04,275.643Z"/>
                    </clipPath>
                    <g clip-path="url(#_clip1)">
                        <g transform="matrix(-1,-1.22465e-16,1.22465e-16,-1,1079.15,417.806)">
                            <rect x="427.215" y="63.635" width="224.721" height="362.462" style="fill:rgb(98,54,5);"/>
                        </g>
                    </g>
                </g>
                <path d="M599.235,139.635C599.235,132.677 593.586,127.028 586.628,127.028L267.801,127.028C260.843,127.028 255.194,132.677 255.194,139.635L255.194,157.19C255.194,164.148 260.843,169.797 267.801,169.797L586.628,169.797C593.586,169.797 599.235,164.148 599.235,157.19L599.235,139.635Z" style="fill:rgb(183,127,64);"/>
                <clipPath id="_clip2">
                    <path d="M599.235,139.635C599.235,132.677 593.586,127.028 586.628,127.028L267.801,127.028C260.843,127.028 255.194,132.677 255.194,139.635L255.194,157.19C255.194,164.148 260.843,169.797 267.801,169.797L586.628,169.797C593.586,169.797 599.235,164.148 599.235,157.19L599.235,139.635Z"/>
                </clipPath>
                <g clip-path="url(#_clip2)">
                    <rect x="231.02" y="100.739" width="196.194" height="94.861" style="fill:rgb(138,101,50);"/>
                </g>
            </g>
        </g>
    </g>
</svg>
