<?xml version="1.0" encoding="UTF-8" standalone="no"?><!DOCTYPE svg PUBLIC "-//W3C//DTD SVG 1.1//EN" "http://www.w3.org/Graphics/SVG/1.1/DTD/svg11.dtd"><svg width="100%" height="100%" viewBox="0 0 369 152" version="1.1" xmlns="http://www.w3.org/2000/svg" xmlns:xlink="http://www.w3.org/1999/xlink" xml:space="preserve" xmlns:serif="http://www.serif.com/" style="fill-rule:evenodd;clip-rule:evenodd;stroke-linejoin:round;stroke-miterlimit:2;"><g><path d="M13.066,12.385c-8.632,11.929 -13.066,24.651 -13.066,37.49c0,73.549 82.582,101.375 184.3,101.375c101.718,-0 184.3,-28.903 184.3,-101.375c-0,-12.839 -4.434,-25.561 -13.066,-37.49l-342.468,0Z" style="fill:#fff;"/><path d="M368.6,8.766c-0,-4.838 -3.928,-8.766 -8.766,-8.766l-351.068,-0c-4.838,-0 -8.766,3.928 -8.766,8.766l0,12.205c0,4.838 3.928,8.766 8.766,8.766l351.068,-0c4.838,-0 8.766,-3.928 8.766,-8.766l-0,-12.205Z" style="fill:#fff;"/><g><path d="M24.486,22.345c-8.056,10.121 -12.194,20.915 -12.194,31.808c-0,62.402 77.074,86.01 172.008,86.01c94.934,0 172.008,-24.522 172.008,-86.01c0,-10.893 -4.138,-21.687 -12.194,-31.808l-319.628,0Z" style="fill:#7a4205;"/><clipPath id="_clip1"><path d="M24.486,22.345c-8.056,10.121 -12.194,20.915 -12.194,31.808c-0,62.402 77.074,86.01 172.008,86.01c94.934,0 172.008,-24.522 172.008,-86.01c0,-10.893 -4.138,-21.687 -12.194,-31.808l-319.628,0Z"/></clipPath><g clip-path="url(#_clip1)"><rect x="-40.405" y="-16.918" width="224.705" height="181.231" style="fill:#623605;"/></g><path d="M356.308,17.957c0,-3.479 -2.824,-6.304 -6.303,-6.304l-331.41,0c-3.479,0 -6.303,2.825 -6.303,6.304l-0,8.777c-0,3.479 2.824,6.304 6.303,6.304l331.41,-0c3.479,-0 6.303,-2.825 6.303,-6.304l0,-8.777Z" style="fill:#b77f40;"/><clipPath id="_clip2"><path d="M356.308,17.957c0,-3.479 -2.824,-6.304 -6.303,-6.304l-331.41,0c-3.479,0 -6.303,2.825 -6.303,6.304l-0,8.777c-0,3.479 2.824,6.304 6.303,6.304l331.41,-0c3.479,-0 6.303,-2.825 6.303,-6.304l0,-8.777Z"/></clipPath><g clip-path="url(#_clip2)"><rect x="-11.88" y="-1.491" width="196.18" height="47.431" style="fill:#8a6532;"/></g></g></g></svg>