<?xml version="1.0" encoding="UTF-8" standalone="no"?>
<!DOCTYPE svg PUBLIC "-//W3C//DTD SVG 1.1//EN" "http://www.w3.org/Graphics/SVG/1.1/DTD/svg11.dtd">
<svg width="100%" height="100%" viewBox="0 0 82 97" version="1.1" xmlns="http://www.w3.org/2000/svg" xmlns:xlink="http://www.w3.org/1999/xlink" xml:space="preserve" xmlns:serif="http://www.serif.com/" style="fill-rule:evenodd;clip-rule:evenodd;stroke-linecap:round;stroke-linejoin:round;stroke-miterlimit:1.5;">
    <g transform="matrix(1,0,0,1,-673.037,-577.081)">
        <g transform="matrix(1.5654,0,0,1.5654,1.17568,371.558)">
            <g transform="matrix(0.257131,0.248969,-0.248969,0.257131,495.99,-130.902)">
                <g transform="matrix(1,0,1.11022e-16,1,6.72388,5.24232)">
                    <path d="M410.973,626.014C413.029,624.164 417.142,620.466 420.984,620.27C425.278,620.051 431.983,622.026 436.738,624.701C441.552,627.409 447.095,633.481 449.866,636.517" style="fill:none;stroke:white;stroke-width:23px;"/>
                </g>
                <g transform="matrix(1,0,1.11022e-16,1,0.30803,0.0715113)">
                    <circle cx="496.324" cy="680.937" r="69.713" style="fill:white;"/>
                </g>
                <g transform="matrix(1.10798,-1.19336e-16,9.418e-17,0.582191,-49.6287,259.706)">
                    <path d="M480.554,560.32C510.866,559.266 527.54,607.306 527.54,607.306C527.54,607.306 511.179,654.432 480.398,655.533C448.676,656.669 433.569,607.306 433.569,607.306C433.569,607.306 447.423,561.472 480.554,560.32Z" style="fill:white;"/>
                </g>
            </g>
            <g transform="matrix(0.229467,0.222183,-0.222183,0.229467,491.647,-99.3407)">
                <path d="M410.973,626.014C413.029,624.164 417.142,620.466 420.984,620.27C425.278,620.051 431.983,622.026 436.738,624.701C441.552,627.409 447.095,633.481 449.866,636.517" style="fill:none;stroke:rgb(60,25,19);stroke-width:12px;"/>
                <path d="M443.042,629.522C442.472,623.046 441.903,616.571 441.333,610.095" style="fill:none;stroke:rgb(60,25,19);stroke-width:12px;"/>
                <g transform="matrix(1,0,0,1,1.20195,1.6026)">
                    <circle cx="496.324" cy="680.937" r="69.713" style="fill:rgb(246,148,49);"/>
                    <clipPath id="_clip1">
                        <circle cx="496.324" cy="680.937" r="69.713"/>
                    </clipPath>
                    <g clip-path="url(#_clip1)">
                        <g transform="matrix(0.767964,-0.743585,0.695612,0.718418,-347.675,545.913)">
                            <rect x="404.28" y="594.273" width="74.361" height="176.927" style="fill:rgb(242,100,50);"/>
                        </g>
                    </g>
                </g>
                <g transform="matrix(1.04845,0,0,0.528487,-21.7769,286.188)">
                    <path d="M480.554,560.32C510.866,559.266 527.54,607.306 527.54,607.306C527.54,607.306 511.179,654.432 480.398,655.533C448.676,656.669 433.569,607.306 433.569,607.306C433.569,607.306 447.423,561.472 480.554,560.32Z" style="fill:rgb(138,198,85);"/>
                    <clipPath id="_clip2">
                        <path d="M480.554,560.32C510.866,559.266 527.54,607.306 527.54,607.306C527.54,607.306 511.179,654.432 480.398,655.533C448.676,656.669 433.569,607.306 433.569,607.306C433.569,607.306 447.423,561.472 480.554,560.32Z"/>
                    </clipPath>
                    <g clip-path="url(#_clip2)">
                        <g transform="matrix(0.00210187,-1.01096,0.95378,0.00780451,-113.374,1095.17)">
                            <rect x="439.665" y="567.605" width="47.95" height="107.951" style="fill:rgb(131,171,74);"/>
                        </g>
                    </g>
                </g>
            </g>
        </g>
    </g>
</svg>
