<?xml version="1.0" encoding="UTF-8" standalone="no"?>
<!DOCTYPE svg PUBLIC "-//W3C//DTD SVG 1.1//EN" "http://www.w3.org/Graphics/SVG/1.1/DTD/svg11.dtd">
<svg width="100%" height="100%" viewBox="0 0 90 130" version="1.1" xmlns="http://www.w3.org/2000/svg" xmlns:xlink="http://www.w3.org/1999/xlink" xml:space="preserve" xmlns:serif="http://www.serif.com/" style="fill-rule:evenodd;clip-rule:evenodd;stroke-linecap:round;stroke-linejoin:round;stroke-miterlimit:1.5;">
    <g transform="matrix(1,0,0,1,-538.226,-440.432)">
        <g transform="matrix(1.5654,0,0,1.5654,1.17568,371.558)">
            <g transform="matrix(0.319406,0,0,0.319406,292.873,-167.17)">
                <g>
                    <g transform="matrix(1.14226,0,0,1.14226,-34.7704,-118.821)">
                        <ellipse cx="244.418" cy="835.249" rx="64.353" ry="74.356" style="fill:white;"/>
                    </g>
                    <path d="M209.4,775.791L273.561,775.791C273.561,775.791 276.419,764.426 291.284,745.625C303.34,730.377 324.88,708.156 332.59,700.302C333.184,699.699 333.412,698.826 333.189,698.01C332.966,697.193 332.325,696.558 331.507,696.34C315.58,692.068 301.375,689.652 290.108,702.135L311.167,672.204C311.167,672.204 287.266,662.739 272.44,679.595C257.615,696.451 259.455,697.844 259.455,697.844C259.455,697.844 259.067,692.169 256.308,679.595C253.548,667.021 245.459,661.126 245.459,661.126C245.459,661.126 237.533,664.933 234.197,683.215C230.862,701.497 230.36,697.844 230.36,697.844C230.36,697.844 226.196,686.035 215.551,679.595C200.556,670.522 174.922,668.662 176.007,672.204C183.536,681.887 194.051,691.681 198.847,701.647C187.584,696.931 178.039,692.724 161.136,696.779C160.307,696.96 159.64,697.575 159.393,698.387C159.145,699.199 159.355,700.081 159.941,700.695C166.725,707.872 184.653,727.082 196.477,742.948C223.535,779.256 209.4,775.791 209.4,775.791Z" style="fill:white;"/>
                    <path d="M224.484,775.791L263.353,775.791C263.353,775.791 267.48,759.978 282.346,741.177C297.211,722.376 318.439,702.344 318.439,702.344C318.439,702.344 306.536,699.538 294.15,707.711C281.764,715.883 271.114,730.483 271.114,730.483C271.114,730.483 272.053,719.673 280.084,706.308C288.114,692.942 299.127,678.39 299.127,678.39C299.127,678.39 285.939,678.369 271.114,695.225C256.288,712.081 255.194,721.331 255.194,721.331C255.194,721.331 254.92,711.647 252.16,699.073C249.401,686.498 245.418,672.204 245.418,672.204C245.418,672.204 241.799,679.972 238.464,698.254C235.128,716.536 235.34,723.464 235.34,723.464C235.34,723.464 229.106,707.258 221.334,697.543C210.181,683.604 187.965,674.848 189.05,678.39C189.05,678.39 199.747,685.071 207.327,701.44C214.908,717.81 221.334,733.184 221.334,733.184C221.334,733.184 215.818,717.29 203.057,710.815C190.295,704.34 170.237,701.974 170.237,701.974C170.237,701.974 188.556,717.346 203.399,737.263C230.456,773.571 224.484,775.791 224.484,775.791Z" style="fill:rgb(139,197,87);"/>
                    <clipPath id="_clip1">
                        <path d="M224.484,775.791L263.353,775.791C263.353,775.791 267.48,759.978 282.346,741.177C297.211,722.376 318.439,702.344 318.439,702.344C318.439,702.344 306.536,699.538 294.15,707.711C281.764,715.883 271.114,730.483 271.114,730.483C271.114,730.483 272.053,719.673 280.084,706.308C288.114,692.942 299.127,678.39 299.127,678.39C299.127,678.39 285.939,678.369 271.114,695.225C256.288,712.081 255.194,721.331 255.194,721.331C255.194,721.331 254.92,711.647 252.16,699.073C249.401,686.498 245.418,672.204 245.418,672.204C245.418,672.204 241.799,679.972 238.464,698.254C235.128,716.536 235.34,723.464 235.34,723.464C235.34,723.464 229.106,707.258 221.334,697.543C210.181,683.604 187.965,674.848 189.05,678.39C189.05,678.39 199.747,685.071 207.327,701.44C214.908,717.81 221.334,733.184 221.334,733.184C221.334,733.184 215.818,717.29 203.057,710.815C190.295,704.34 170.237,701.974 170.237,701.974C170.237,701.974 188.556,717.346 203.399,737.263C230.456,773.571 224.484,775.791 224.484,775.791Z"/>
                    </clipPath>
                    <g clip-path="url(#_clip1)">
                        <rect x="161.037" y="659.355" width="83.301" height="133.963" style="fill:rgb(131,171,74);"/>
                    </g>
                    <ellipse cx="244.418" cy="835.249" rx="64.353" ry="74.356" style="fill:rgb(253,213,37);"/>
                    <clipPath id="_clip2">
                        <ellipse cx="244.418" cy="835.249" rx="64.353" ry="74.356"/>
                    </clipPath>
                    <g clip-path="url(#_clip2)">
                        <rect x="170.237" y="745.625" width="74.181" height="172.743" style="fill:rgb(233,193,43);"/>
                        <g>
                            <g transform="matrix(1.43274,0,0,1.43274,-172.633,-316.17)">
                                <path d="M271.995,784.16C271.995,778.761 267.618,774.384 262.219,774.384C256.819,774.384 252.442,778.761 252.442,784.16" style="fill:none;stroke:rgb(205,168,26);stroke-width:2.79px;"/>
                            </g>
                            <g transform="matrix(1.43274,0,0,1.43274,-188.458,-293.802)">
                                <path d="M271.995,784.16C271.995,778.761 267.618,774.384 262.219,774.384C256.819,774.384 252.442,778.761 252.442,784.16" style="fill:none;stroke:rgb(205,168,26);stroke-width:2.79px;"/>
                            </g>
                            <g transform="matrix(1.43274,0,0,1.43274,-159.365,-293.802)">
                                <path d="M271.995,784.16C271.995,778.761 267.618,774.384 262.219,774.384C256.819,774.384 252.442,778.761 252.442,784.16" style="fill:none;stroke:rgb(205,168,26);stroke-width:2.79px;"/>
                            </g>
                            <g transform="matrix(1.43274,0,0,1.43274,-130.272,-293.802)">
                                <path d="M271.995,784.16C271.995,778.761 267.618,774.384 262.219,774.384C256.819,774.384 252.442,778.761 252.442,784.16" style="fill:none;stroke:rgb(205,168,26);stroke-width:2.79px;"/>
                            </g>
                            <g transform="matrix(1.43274,0,0,1.43274,-101.179,-293.802)">
                                <path d="M271.995,784.16C271.995,778.761 267.618,774.384 262.219,774.384C256.819,774.384 252.442,778.761 252.442,784.16" style="fill:none;stroke:rgb(205,168,26);stroke-width:2.79px;"/>
                            </g>
                            <g transform="matrix(1.43274,0,0,1.43274,-72.0853,-293.802)">
                                <path d="M271.995,784.16C271.995,778.761 267.618,774.384 262.219,774.384C256.819,774.384 252.442,778.761 252.442,784.16" style="fill:none;stroke:rgb(205,168,26);stroke-width:2.79px;"/>
                            </g>
                            <g transform="matrix(1.43274,0,0,1.43274,-200.646,-271.433)">
                                <path d="M271.995,784.16C271.995,778.761 267.618,774.384 262.219,774.384C256.819,774.384 252.442,778.761 252.442,784.16" style="fill:none;stroke:rgb(205,168,26);stroke-width:2.79px;"/>
                            </g>
                            <g transform="matrix(1.43274,0,0,1.43274,-186.64,-246.903)">
                                <path d="M271.995,784.16C271.995,778.761 267.618,774.384 262.219,774.384C256.819,774.384 252.442,778.761 252.442,784.16" style="fill:none;stroke:rgb(205,168,26);stroke-width:2.79px;"/>
                            </g>
                            <g transform="matrix(1.43274,0,0,1.43274,-168.363,-222.373)">
                                <path d="M271.995,784.16C271.995,778.761 267.618,774.384 262.219,774.384C256.819,774.384 252.442,778.761 252.442,784.16" style="fill:none;stroke:rgb(205,168,26);stroke-width:2.79px;"/>
                            </g>
                            <g transform="matrix(1.43274,0,0,1.43274,-140.35,-222.373)">
                                <path d="M271.995,784.16C271.995,778.761 267.618,774.384 262.219,774.384C256.819,774.384 252.442,778.761 252.442,784.16" style="fill:none;stroke:rgb(205,168,26);stroke-width:2.79px;"/>
                            </g>
                            <g transform="matrix(1.43274,0,0,1.43274,-112.337,-222.373)">
                                <path d="M271.995,784.16C271.995,778.761 267.618,774.384 262.219,774.384C256.819,774.384 252.442,778.761 252.442,784.16" style="fill:none;stroke:rgb(205,168,26);stroke-width:2.79px;"/>
                            </g>
                            <g transform="matrix(1.43274,0,0,1.43274,-84.3237,-222.373)">
                                <path d="M271.995,784.16C271.995,778.761 267.618,774.384 262.219,774.384C256.819,774.384 252.442,778.761 252.442,784.16" style="fill:none;stroke:rgb(205,168,26);stroke-width:2.79px;"/>
                            </g>
                            <g transform="matrix(1.43274,0,0,1.43274,-158.285,-246.903)">
                                <path d="M271.995,784.16C271.995,778.761 267.618,774.384 262.219,774.384C256.819,774.384 252.442,778.761 252.442,784.16" style="fill:none;stroke:rgb(205,168,26);stroke-width:2.79px;"/>
                            </g>
                            <g transform="matrix(1.43274,0,0,1.43274,-129.93,-246.903)">
                                <path d="M271.995,784.16C271.995,778.761 267.618,774.384 262.219,774.384C256.819,774.384 252.442,778.761 252.442,784.16" style="fill:none;stroke:rgb(205,168,26);stroke-width:2.79px;"/>
                            </g>
                            <g transform="matrix(1.43274,0,0,1.43274,-101.575,-246.903)">
                                <path d="M271.995,784.16C271.995,778.761 267.618,774.384 262.219,774.384C256.819,774.384 252.442,778.761 252.442,784.16" style="fill:none;stroke:rgb(205,168,26);stroke-width:2.79px;"/>
                            </g>
                            <g transform="matrix(1.43274,0,0,1.43274,-73.2197,-246.903)">
                                <path d="M271.995,784.16C271.995,778.761 267.618,774.384 262.219,774.384C256.819,774.384 252.442,778.761 252.442,784.16" style="fill:none;stroke:rgb(205,168,26);stroke-width:2.79px;"/>
                            </g>
                            <g transform="matrix(1.43274,0,0,1.43274,-172.633,-269.272)">
                                <path d="M271.995,784.16C271.995,778.761 267.618,774.384 262.219,774.384C256.819,774.384 252.442,778.761 252.442,784.16" style="fill:none;stroke:rgb(205,168,26);stroke-width:2.79px;"/>
                            </g>
                            <g transform="matrix(1.43274,0,0,1.43274,-144.62,-271.433)">
                                <path d="M271.995,784.16C271.995,778.761 267.618,774.384 262.219,774.384C256.819,774.384 252.442,778.761 252.442,784.16" style="fill:none;stroke:rgb(205,168,26);stroke-width:2.79px;"/>
                            </g>
                            <g transform="matrix(1.43274,0,0,1.43274,-116.265,-269.272)">
                                <path d="M271.995,784.16C271.995,778.761 267.618,774.384 262.219,774.384C256.819,774.384 252.442,778.761 252.442,784.16" style="fill:none;stroke:rgb(205,168,26);stroke-width:2.79px;"/>
                            </g>
                            <g transform="matrix(1.43274,0,0,1.43274,-88.5945,-269.272)">
                                <path d="M271.995,784.16C271.995,778.761 267.618,774.384 262.219,774.384C256.819,774.384 252.442,778.761 252.442,784.16" style="fill:none;stroke:rgb(205,168,26);stroke-width:2.79px;"/>
                            </g>
                            <g transform="matrix(1.43274,0,0,1.43274,-60.9236,-269.272)">
                                <path d="M271.995,784.16C271.995,778.761 267.618,774.384 262.219,774.384C256.819,774.384 252.442,778.761 252.442,784.16" style="fill:none;stroke:rgb(205,168,26);stroke-width:2.79px;"/>
                            </g>
                            <g transform="matrix(1.43274,0,0,1.43274,-160.445,-340.7)">
                                <path d="M271.995,784.16C271.995,778.761 267.618,774.384 262.219,774.384C256.819,774.384 252.442,778.761 252.442,784.16" style="fill:none;stroke:rgb(205,168,26);stroke-width:2.79px;"/>
                            </g>
                            <g transform="matrix(1.43274,0,0,1.43274,-145.279,-316.17)">
                                <path d="M271.995,784.16C271.995,778.761 267.618,774.384 262.219,774.384C256.819,774.384 252.442,778.761 252.442,784.16" style="fill:none;stroke:rgb(205,168,26);stroke-width:2.79px;"/>
                            </g>
                            <g transform="matrix(1.43274,0,0,1.43274,-117.924,-316.17)">
                                <path d="M271.995,784.16C271.995,778.761 267.618,774.384 262.219,774.384C256.819,774.384 252.442,778.761 252.442,784.16" style="fill:none;stroke:rgb(205,168,26);stroke-width:2.79px;"/>
                            </g>
                            <g transform="matrix(1.43274,0,0,1.43274,-90.5696,-316.17)">
                                <path d="M271.995,784.16C271.995,778.761 267.618,774.384 262.219,774.384C256.819,774.384 252.442,778.761 252.442,784.16" style="fill:none;stroke:rgb(205,168,26);stroke-width:2.79px;"/>
                            </g>
                            <g transform="matrix(1.43274,0,0,1.43274,-131.352,-340.7)">
                                <path d="M271.995,784.16C271.995,778.761 267.618,774.384 262.219,774.384C256.819,774.384 252.442,778.761 252.442,784.16" style="fill:none;stroke:rgb(205,168,26);stroke-width:2.79px;"/>
                            </g>
                            <g transform="matrix(1.43274,0,0,1.43274,-102.259,-340.7)">
                                <path d="M271.995,784.16C271.995,778.761 267.618,774.384 262.219,774.384C256.819,774.384 252.442,778.761 252.442,784.16" style="fill:none;stroke:rgb(205,168,26);stroke-width:2.79px;"/>
                            </g>
                        </g>
                    </g>
                </g>
            </g>
        </g>
    </g>
</svg>
