<?xml version="1.0" encoding="UTF-8" standalone="no"?><!DOCTYPE svg PUBLIC "-//W3C//DTD SVG 1.1//EN" "http://www.w3.org/Graphics/SVG/1.1/DTD/svg11.dtd"><svg width="100%" height="100%" viewBox="0 0 223 56" version="1.1" xmlns="http://www.w3.org/2000/svg" xmlns:xlink="http://www.w3.org/1999/xlink" xml:space="preserve" xmlns:serif="http://www.serif.com/" style="fill-rule:evenodd;clip-rule:evenodd;stroke-linejoin:round;stroke-miterlimit:2;"><g><path d="M37.615,8.531c-9.442,-0.148 -26.613,0.332 -28.598,1.628c-3.351,2.189 -11.514,11.028 -7.369,12.471c4.188,1.459 15.295,12.029 18.737,18.601c2.219,4.239 -7.055,7.836 -3.832,11.639c3.852,4.548 17.899,-0.745 25.919,-0.321c13.061,0.691 26.542,1.465 39.478,1.321c11.181,-0.126 21.84,-1.123 32.875,-1.23c7.751,-0.075 23.087,1.331 30.772,1.381c13.47,0.086 5.604,-1.427 19.122,-1.746c19.397,1.267 17.24,1.451 32.302,2.227c6.103,0.314 11.031,-1.288 12.63,-3.323c2.495,-3.178 4.851,-5.192 4.851,-8.077c-12.716,-5.055 7.034,-7.407 2.182,-10.744c-3.845,-2.644 -0.16,-9.024 -2.099,-10.257c-3.972,-2.525 -3.352,-1.228 -3.693,-3.943c2.737,-0.811 9.824,-3.205 10.519,-4.631c0.949,-1.948 -0.134,-10.463 -6.081,-11.071c-10.162,-1.038 -28.552,1.317 -41.128,1.408c-16.503,0.12 -63.921,-4.295 -66.06,-3.185c-3.777,1.959 -20.257,5.055 -49.974,2.547c-8.096,-0.683 -9.399,4.541 -20.553,5.305Z" style="fill:#fff;"/><path d="M41.424,12.43c-8.957,-0.119 -25.246,0.264 -27.129,1.3c-3.179,1.75 -10.923,6.458 -6.991,7.612c3.973,1.166 16.307,14.659 19.572,19.912c2.106,3.387 -8.689,6.934 -3.835,8.964c5.064,2.119 15.383,-2.95 22.991,-2.611c12.391,0.551 25.179,1.17 37.451,1.055c10.608,-0.1 20.719,-0.897 31.188,-0.982c7.353,-0.061 21.902,1.063 29.192,1.102c12.778,0.069 5.316,-1.14 18.14,-1.395c18.401,1.013 16.354,1.16 30.644,1.78c5.789,0.251 10.464,-1.029 11.981,-2.656c2.367,-2.539 4.602,-4.149 4.602,-6.454c-12.063,-4.04 6.672,-5.919 2.07,-8.586c-3.648,-2.114 -0.152,-8.053 -1.992,-9.038c-3.768,-2.018 -8.97,-2.404 -9.294,-4.574c0,-1.321 16.509,-4.337 17.168,-5.477c0.9,-1.556 -0.726,-6.645 -6.367,-7.131c-9.641,-0.829 -27.886,3.376 -39.816,3.449c-15.655,0.095 -60.639,-3.433 -62.669,-2.546c-3.583,1.566 -19.216,4.04 -47.408,2.036c-7.68,-0.546 -8.916,3.629 -19.498,4.24Z" style="fill:#9a8566;"/><clipPath id="_clip1"><path d="M41.424,12.43c-8.957,-0.119 -25.246,0.264 -27.129,1.3c-3.179,1.75 -10.923,6.458 -6.991,7.612c3.973,1.166 16.307,14.659 19.572,19.912c2.106,3.387 -8.689,6.934 -3.835,8.964c5.064,2.119 15.383,-2.95 22.991,-2.611c12.391,0.551 25.179,1.17 37.451,1.055c10.608,-0.1 20.719,-0.897 31.188,-0.982c7.353,-0.061 21.902,1.063 29.192,1.102c12.778,0.069 5.316,-1.14 18.14,-1.395c18.401,1.013 16.354,1.16 30.644,1.78c5.789,0.251 10.464,-1.029 11.981,-2.656c2.367,-2.539 4.602,-4.149 4.602,-6.454c-12.063,-4.04 6.672,-5.919 2.07,-8.586c-3.648,-2.114 -0.152,-8.053 -1.992,-9.038c-3.768,-2.018 -8.97,-2.404 -9.294,-4.574c0,-1.321 16.509,-4.337 17.168,-5.477c0.9,-1.556 -0.726,-6.645 -6.367,-7.131c-9.641,-0.829 -27.886,3.376 -39.816,3.449c-15.655,0.095 -60.639,-3.433 -62.669,-2.546c-3.583,1.566 -19.216,4.04 -47.408,2.036c-7.68,-0.546 -8.916,3.629 -19.498,4.24Z"/></clipPath><g clip-path="url(#_clip1)"><g><path d="M119.718,35.857c0,-0 2.725,0.378 7.09,0.745c0.744,0.062 1.53,0.129 2.363,0.148c0.755,0.018 1.544,-0.012 2.361,-0.037c3.183,-0.097 6.792,-0.268 10.573,-0.477c5.217,-0.288 10.711,-0.817 15.858,-1.036c2.301,-0.098 4.529,-0.027 6.61,-0.131c8.202,-0.41 14.157,-1.138 14.157,-1.138c0,-0 -5.966,-0.625 -14.174,-0.893c-2.083,-0.068 -4.309,0.042 -6.612,-0.016c-5.15,-0.13 -10.652,-0.564 -15.873,-0.761c-3.784,-0.143 -7.396,-0.251 -10.581,-0.293c-0.817,-0.011 -1.606,-0.027 -2.361,0.003c-0.832,0.034 -1.616,0.114 -2.359,0.19c-4.358,0.442 -7.076,0.868 -7.076,0.868c-0.781,0.006 -1.409,0.645 -1.402,1.426c0.007,0.78 0.646,1.409 1.426,1.402Z" style="fill:#806a52;"/><path d="M82.843,33.273c0,-0 5.819,0.788 13.453,0.801c0.718,0.002 1.446,-0.108 2.191,-0.126c6.434,-0.155 13.757,0.203 19.735,0.264c1.688,0.017 3.267,0.02 4.687,0.017c1.869,-0.003 3.461,-0.028 4.658,-0.011c2.218,-0.001 5.167,-0.061 8.4,-0.2c2.676,-0.116 5.543,-0.261 8.349,-0.462c1.713,-0.123 3.394,-0.267 4.999,-0.425c6.511,-0.639 11.642,-1.321 11.642,-1.321c0,-0 -6.071,-0.339 -13.367,-0.563c-2.594,-0.08 -5.332,-0.109 -8.003,-0.147c-4.584,-0.064 -8.945,-0.09 -11.944,-0.235c-1.218,-0.039 -2.839,-0.082 -4.743,-0.075c-1.429,0.005 -3.017,0.031 -4.714,0.085c-5.985,0.189 -13.301,0.832 -19.746,0.962c-0.745,0.015 -1.478,-0.062 -2.196,-0.028c-7.627,0.361 -13.401,1.464 -13.401,1.464Z" style="fill:#806a52;"/><path d="M29.963,44.109c-0,0 4.655,-0.967 9.968,-1.796c1.978,-0.309 4.039,-0.588 5.986,-0.811c1.41,-0.161 2.755,-0.304 3.959,-0.351c2.535,-0.117 7.094,-0.181 12.374,-0.264c4.564,-0.071 9.665,-0.122 14.463,-0.202c5.723,-0.094 11.011,-0.235 14.444,-0.196c3.157,0.006 7.291,-0.048 11.434,-0.173c8.553,-0.259 17.115,-0.728 17.115,-0.728c0,0 -8.566,-0.227 -17.115,-0.49c-4.127,-0.128 -8.244,-0.243 -11.385,-0.41c-3.028,-0.136 -7.5,-0.256 -12.444,-0.275c-2.675,-0.01 -5.488,0.005 -8.284,0.057c-8.535,0.161 -16.904,0.55 -20.713,0.819c-2.369,0.214 -5.265,0.711 -8.095,1.384c-6.004,1.428 -11.707,3.436 -11.707,3.436Z" style="fill:#806a52;"/><path d="M27.237,42.714c-0.333,0.148 -0.211,0.136 -0.211,0.136l0.211,-0.136l0.119,-0.052c0.276,-0.117 0.756,-0.287 1.594,-0.578c0.865,-0.31 2.479,-0.572 4.451,-0.869c1.608,-0.242 3.434,-0.485 5.275,-0.726c1.825,-0.238 3.649,-0.491 5.269,-0.658c1.331,-0.205 3.064,-0.355 4.9,-0.522c1.644,-0.15 3.368,-0.28 4.97,-0.447c0.697,-0.073 1.361,-0.157 1.992,-0.252c2.721,-0.413 4.655,-0.803 4.655,-0.803c0,-0 -1.951,-0.342 -4.698,-0.587c-0.638,-0.057 -1.311,-0.096 -2.015,-0.116c-1.626,-0.046 -3.374,-0.015 -5.041,0.044c-1.905,0.067 -3.699,0.219 -5.081,0.39c-1.408,0.243 -2.973,0.523 -4.546,0.872c-1.532,0.34 -3.068,0.72 -4.485,1.132c-2.623,0.763 -4.8,1.589 -5.815,2.178l-1.544,0.994Z" style="fill:#806a52;"/><path d="M21.405,22.083c0,0 0.374,0.323 1.304,0.823c1.091,0.588 2.894,1.44 5.865,2.149c1.123,0.268 2.393,0.519 3.86,0.703c1.181,0.149 2.477,0.228 3.9,0.295c4.375,0.145 7.569,0.013 10.402,-0.324c1.286,-0.154 2.496,-0.349 3.702,-0.582c0.797,-0.154 1.592,-0.328 2.407,-0.518c2.518,-0.586 5.231,-1.296 8.881,-1.945c1.594,-0.317 3.08,-0.599 4.463,-0.888c4.937,-1.034 8.447,-1.902 10.387,-2.281c1.086,-0.212 1.659,-0.284 1.659,-0.284c1.167,1.584 1.832,0.719 1.708,-0.224c-0.123,-0.942 -0.989,-1.607 -1.931,-1.484l0.223,1.708c0,-0 -0.572,0.078 -1.676,0.153c-1.972,0.135 -5.587,0.202 -10.624,0.483c-1.411,0.078 -2.92,0.192 -4.542,0.299c-2.983,0.25 -5.379,0.547 -7.542,0.888c-1.106,0.175 -2.148,0.349 -3.171,0.548c-2.205,0.428 -4.325,0.877 -6.882,1.223c-2.109,0.286 -4.501,0.557 -7.48,0.7c-1.679,0.107 -3.176,0.121 -4.523,0.131c-1.78,0.013 -3.266,-0.002 -4.534,-0.109c-1.907,-0.16 -3.26,-0.413 -4.191,-0.707c-1.2,-0.38 -1.665,-0.757 -1.665,-0.757Z" style="fill:#806a52;"/><path d="M23.402,23.092c-0,0 1.342,0.435 3.863,1.041c2.203,0.53 5.288,1.218 9.198,1.756c3.75,0.516 8.233,0.902 13.381,0.997c6.457,-0.001 12.434,-0.224 18.237,-0.581c5.517,-0.339 10.873,-0.757 16.323,-1.194c3.546,-0.284 7.129,-0.606 10.83,-0.843c8.892,-0.735 15.931,-1.291 22.813,-1.445c4.934,-0.111 9.778,-0.036 15.179,0.45c3.919,0.331 7.283,0.356 10.085,0.261c6.538,-0.221 9.967,-1.208 9.967,-1.208c1.363,1.418 1.909,0.473 1.663,-0.445c-0.245,-0.919 -1.19,-1.465 -2.108,-1.219l0.445,1.664c-0,-0 -2.755,0.693 -7.967,0.679c-3.12,-0.008 -7.109,-0.298 -11.916,-1.088c-5.435,-0.863 -10.331,-1.336 -15.336,-1.496c-6.934,-0.223 -14.048,0.132 -23.032,0.501c-4.361,0.268 -8.568,0.579 -12.726,0.977c-6.285,0.602 -12.464,1.33 -18.962,1.903c-4.334,0.381 -8.803,0.727 -13.542,0.938c-6.331,0.403 -11.68,0.253 -15.885,-0.071c-2.557,-0.197 -4.684,-0.438 -6.341,-0.705c-2.723,-0.437 -4.169,-0.872 -4.169,-0.872Z" style="fill:#806a52;"/><path d="M189.294,20.306c-0.332,0.059 -1.239,0.151 -3.715,0.189c-1.74,0.027 -4.227,-0.031 -7.846,-0.076c-1.186,-0.015 -2.483,-0.035 -3.92,-0.035c-1.21,0.001 -2.511,0.027 -3.916,0.039c-3.517,0.048 -6.345,0.074 -8.695,0.112c-3.922,0.062 -6.487,0.092 -8.646,0.092c-2.002,-0 -3.651,-0.043 -5.715,-0.091c-1.578,-0.037 -3.396,-0.049 -5.789,-0.085c-3.568,-0.008 -8.139,0.058 -12.699,0.283c-5.801,0.286 -11.534,0.829 -15.171,1.067c-2.337,0.154 -3.789,0.21 -3.789,0.21c-0.987,-1.702 -1.742,-0.914 -1.722,0.036c0.021,0.951 0.809,1.706 1.759,1.686l-0.037,-1.722c0,-0 1.194,-0.014 3.162,0.046c0.906,0.027 1.969,0.088 3.162,0.145c3.508,0.168 8.051,0.463 12.634,0.695c4.521,0.229 9.049,0.398 12.577,0.674c2.395,0.155 4.213,0.3 5.795,0.372c2.121,0.097 3.818,0.116 5.876,0.063c2.184,-0.056 4.776,-0.208 8.735,-0.496c2.346,-0.17 5.167,-0.409 8.676,-0.693c1.403,-0.121 2.703,-0.222 3.909,-0.345c1.433,-0.146 2.724,-0.305 3.904,-0.452c4.876,-0.608 7.683,-1.09 9.343,-1.346c1.309,-0.203 1.88,-0.312 2.128,-0.368c0.171,-0.03 0.188,-0.051 0.188,-0.051c0,-0 -0.017,0.013 -0.188,0.051Z" style="fill:#806a52;"/><path d="M25.135,48.63c0,0 5.548,-0.773 12.344,-1.585c3.578,-0.428 7.487,-0.858 11.118,-1.203c0.5,-0.048 0.995,-0.076 1.48,-0.139c1.02,-0.132 1.992,-0.354 2.932,-0.473c1.044,-0.133 2.036,-0.195 2.946,-0.263c5.36,-0.394 9.767,-0.703 14.429,-0.855c4.277,-0.14 8.766,-0.145 14.404,0.054c2.481,0.075 4.923,0.179 7.304,0.26c3.855,0.13 7.552,0.245 10.996,0.292c4.642,0.062 8.829,-0.015 12.335,-0.285c2.329,-0.187 4.977,-0.496 7.721,-0.874c6.308,-0.87 13.127,-2.058 17.714,-2.504c2.202,-0.246 3.98,-0.393 5.55,-0.493c3.091,-0.197 5.363,-0.202 8.406,-0.323c1.506,-0.065 3.504,-0.079 5.516,-0.072c4.139,0.016 8.307,0.126 8.307,0.126c0,0 -4.146,-0.483 -8.273,-0.858c-2.021,-0.184 -4.031,-0.339 -5.55,-0.404c-2.578,-0.105 -4.599,-0.265 -7.037,-0.327c-1.946,-0.051 -4.147,-0.032 -7.094,0.096c-5.248,0.308 -13.427,1.416 -20.428,2.075c-1.782,0.167 -3.485,0.313 -5.043,0.398c-2.649,0.147 -5.692,0.144 -9.03,0.092c-2.667,-0.041 -5.519,-0.13 -8.508,-0.203c-4.068,-0.098 -8.386,-0.165 -12.826,-0.207c-5.722,-0.01 -10.271,0.142 -14.6,0.436c-4.688,0.318 -9.113,0.799 -14.494,1.395c-1.005,0.107 -2.101,0.262 -3.271,0.398c-1.039,0.12 -2.14,0.18 -3.264,0.347c-0.909,0.135 -1.826,0.339 -2.763,0.52c-10.017,1.934 -21.321,4.579 -21.321,4.579Z" style="fill:#806a52;"/><path d="M219.982,43.365c-0,-0 -1.525,0.021 -3.926,-0.014c-2.401,-0.034 -5.664,-0.146 -9.161,-0.241c-3.953,-0.108 -8.181,-0.256 -11.765,-0.366c-3.531,-0.107 -6.417,-0.18 -7.734,-0.328c-2.352,-0.255 -6.129,-0.617 -10.454,-0.967c-4.96,-0.402 -10.637,-0.787 -15.686,-1.096c-3.363,-0.154 -6.617,-0.198 -9.681,-0.115c-5.589,0.153 -10.538,0.636 -14.386,0.897c-2.748,0.204 -5.107,0.313 -7.825,0.403c-3.111,0.104 -6.681,0.186 -11.824,0.289l-23.495,0.959c-0.979,-1.707 -1.738,-0.923 -1.722,0.028c0.015,0.95 0.799,1.709 1.75,1.694l-0.028,-1.722c-0,-0 4.098,0.023 9.395,0.167c4.428,0.12 9.678,0.342 14.079,0.575c5.156,0.229 8.735,0.401 11.857,0.475c2.76,0.065 5.157,0.052 7.954,-0.017c3.827,-0.118 8.755,-0.32 14.306,-0.366c2.996,-0.024 6.175,-0.031 9.462,0.124c5.951,0.184 12.775,0.486 18.27,0.747c3.204,0.153 5.954,0.286 7.812,0.408c1.598,0.095 5.42,0.061 9.923,-0.137c6.175,-0.272 13.611,-0.858 18.305,-1.146c2.77,-0.169 4.574,-0.251 4.574,-0.251Z" style="fill:#806a52;"/><path d="M217.486,29.301c-4.03,-0.613 -7.023,-1.058 -9.652,-1.092c-3.248,-0.043 -5.805,0.365 -8.835,0.494c-3.291,0.14 -7.131,0.201 -13.081,-0.256c-3.523,-0.245 -6.445,-0.415 -8.976,-0.676c-2.389,-0.246 -4.414,-0.613 -6.277,-0.756c-0.949,-0.073 -1.85,-0.085 -2.73,-0.099c-3.877,-0.06 -7.248,0.205 -12.05,1.024c3.529,-0.094 6.255,0.006 8.964,0.288c1.356,0.142 2.687,0.365 4.123,0.566c2.376,0.334 5.013,0.612 8.282,1.172c2.376,0.408 5.067,0.967 8.281,1.55c5.722,0.997 9.569,1.4 12.846,1.532c2.402,0.097 4.486,0.067 6.763,0.007c0.897,-0.023 1.826,-0.022 2.816,-0.098c2.543,-0.194 5.436,-0.632 9.384,-0.832c0.78,0.039 1.444,-0.562 1.483,-1.341c0.039,-0.78 -0.562,-1.444 -1.341,-1.483Z" style="fill:#806a52;"/></g><path d="M44.664,4.312c-0,-3.956 17.452,-7.167 38.947,-7.167c21.496,-0 38.948,3.211 38.948,7.167c-0,3.955 -17.452,7.167 -38.948,7.167c-21.495,-0 -38.947,-3.212 -38.947,-7.167Z" style="fill:#ad987d;"/><path d="M56.053,-0.186c-0,-5.913 32.7,-10.714 72.979,-10.714c40.278,0 72.979,4.801 72.979,10.714c-0,5.913 -32.701,10.714 -72.979,10.714c-40.279,0 -72.979,-4.801 -72.979,-10.714Z" style="fill:#ad987d;"/><path d="M56.053,-0.186c-0.043,2.898 7.742,5.65 20.433,7.768c12.131,2.025 28.738,3.585 47.271,3.927c1.742,0.032 3.501,0.034 5.275,0.037c9.293,0.009 18.183,-0.278 26.367,-0.694c10.02,-0.51 18.984,-1.25 26.328,-2.281c8.224,-1.156 14.449,-2.644 17.934,-4.31c2.736,-1.307 3.928,-2.979 3.945,-4.447c0.017,-1.478 -1.175,-3.162 -3.898,-4.541c-3.459,-1.752 -9.674,-3.393 -17.903,-4.726c-13.333,-2.16 -32.051,-3.561 -52.773,-3.734c-9.321,-0.036 -18.243,0.099 -26.444,0.619c-10.048,0.638 -19.01,1.758 -26.344,3.025c-8.21,1.418 -14.396,3.138 -17.832,4.931c-2.631,1.372 -3.807,2.99 -3.774,4.426l1.415,0Zm1.414,0c0.004,-0.204 0.195,-0.35 0.396,-0.541c0.431,-0.409 1.075,-0.78 1.891,-1.158c3.325,-1.542 9.262,-2.796 17.073,-3.823c7.267,-0.955 16.129,-1.59 26.032,-2.087c8.125,-0.408 16.946,-0.782 26.173,-0.818c16.9,-0.135 32.464,0.605 44.82,1.913c10.398,1.101 18.496,2.585 23.132,4.388c1.191,0.463 2.135,0.928 2.787,1.43c0.334,0.257 0.641,0.422 0.644,0.696c0.003,0.278 -0.278,0.473 -0.609,0.74c-0.645,0.521 -1.58,1.022 -2.77,1.517c-4.609,1.915 -12.696,3.617 -23.106,4.936c-5.402,0.684 -11.419,1.29 -17.901,1.71c-8.348,0.54 -17.461,0.782 -26.997,0.794c-20.567,0.267 -39.166,-0.755 -52.446,-2.586c-12.67,-1.746 -20.491,-4.23 -20.533,-7.111l1.414,0Z" style="fill:#ad987d;"/><path d="M-16.799,7.42c-0,-3.37 17.746,-6.107 39.605,-6.107c21.859,0 39.606,2.737 39.606,6.107c-0,3.37 -17.747,6.107 -39.606,6.107c-21.859,-0 -39.605,-2.737 -39.605,-6.107Z" style="fill:#ad987d;"/><path d="M13.042,57.114c0,-6.377 31.069,-11.555 69.337,-11.555c38.268,-0 69.337,5.178 69.337,11.555c0,6.377 -31.069,11.555 -69.337,11.555c-38.268,-0 -69.337,-5.178 -69.337,-11.555Z" style="fill:#806a52;"/><path d="M13.042,57.114c-0.048,3.101 7.223,6.037 19.105,8.299c11.543,2.198 27.431,3.873 45.184,4.234c1.667,0.034 3.351,0.036 5.048,0.039c8.898,0.01 17.405,-0.301 25.231,-0.761c9.598,-0.564 18.173,-1.389 25.174,-2.527c7.891,-1.283 13.819,-2.939 17.059,-4.779c2.391,-1.357 3.45,-2.992 3.469,-4.505c0.018,-1.524 -1.041,-3.171 -3.416,-4.596c-3.21,-1.926 -9.125,-3.734 -17.024,-5.197c-12.697,-2.351 -30.626,-3.876 -50.493,-4.049c-8.927,-0.037 -17.472,0.123 -25.318,0.687c-9.629,0.693 -18.203,1.899 -25.191,3.273c-7.876,1.548 -13.76,3.432 -16.943,5.397c-2.292,1.414 -3.335,3.003 -3.299,4.485l1.414,-0Zm1.414,-0c0.006,-0.231 0.162,-0.429 0.35,-0.648c0.366,-0.427 0.934,-0.815 1.654,-1.213c3.06,-1.688 8.663,-3.065 16.078,-4.2c6.912,-1.058 15.37,-1.774 24.833,-2.323c7.759,-0.451 16.188,-0.848 25.008,-0.884c16.164,-0.135 31.039,0.684 42.811,2.124c9.906,1.211 17.583,2.837 21.889,4.81c1.074,0.492 1.919,0.984 2.488,1.516c0.301,0.282 0.55,0.519 0.554,0.818c0.004,0.303 -0.217,0.566 -0.515,0.858c-0.561,0.551 -1.395,1.08 -2.467,1.602c-4.276,2.085 -11.939,3.93 -21.86,5.361c-5.148,0.743 -10.893,1.397 -17.089,1.852c-7.974,0.585 -16.688,0.852 -25.811,0.864c-19.689,0.268 -37.48,-0.873 -50.118,-2.893c-11.86,-1.895 -19.172,-4.565 -19.219,-7.644l1.414,-0Z" style="fill:#806a52;"/><path d="M8.873,57.699c0,-6.377 56.632,-11.555 126.387,-11.555c69.755,-0 126.387,5.178 126.387,11.555c-0,6.377 -56.632,11.555 -126.387,11.555c-69.755,0 -126.387,-5.178 -126.387,-11.555Z" style="fill:#806a52;"/><path d="M8.873,57.699c-0.027,3.181 14.017,6.2 36.76,8.477c22.894,2.293 54.601,3.828 89.627,4.095c15.798,0.01 30.923,-0.288 44.873,-0.723c16.995,-0.531 32.248,-1.303 44.846,-2.376c17.054,-1.454 29.294,-3.414 34.524,-5.619c1.315,-0.555 2.245,-1.159 2.809,-1.742c0.661,-0.682 0.925,-1.41 0.93,-2.112c0.005,-0.704 -0.266,-1.43 -0.919,-2.123c-0.557,-0.592 -1.487,-1.205 -2.8,-1.779c-5.207,-2.28 -17.436,-4.418 -34.497,-6.085c-22.932,-2.241 -54.691,-3.683 -89.766,-3.855c-15.814,-0.036 -30.959,0.108 -44.92,0.648c-17.012,0.657 -32.263,1.808 -44.855,3.116c-17.038,1.77 -29.24,4.003 -34.428,6.318c-2.554,1.139 -3.614,2.586 -3.598,3.76l1.414,-0Zm251.028,0.01c-0.091,0.087 -0.204,0.185 -0.308,0.256c-0.575,0.389 -1.391,0.765 -2.427,1.142c-7.054,2.567 -23.255,4.843 -45.168,6.525c-9.287,0.712 -19.591,1.341 -30.659,1.777c-14.277,0.562 -29.822,0.816 -46.079,0.828c-34.981,0.267 -66.667,-0.805 -89.567,-2.722c-22.725,-1.903 -36.793,-4.642 -36.82,-7.816l1.414,-0l0.002,0.02c-0.037,0.034 -0.05,0.063 -0.012,0.08c0.027,0.011 0.016,-0.043 0.012,-0.08c0.062,-0.058 0.19,-0.131 0.266,-0.192c0.384,-0.31 0.946,-0.597 1.661,-0.892c5.101,-2.11 17.03,-3.824 33.625,-5.151c12.55,-1.004 27.741,-1.68 44.665,-2.202c13.914,-0.429 28.997,-0.815 44.754,-0.851c34.93,-0.171 66.566,0.992 89.427,2.962c16.569,1.428 28.475,3.24 33.556,5.384c0.574,0.242 1.048,0.481 1.411,0.731c0.082,0.056 0.172,0.132 0.247,0.201Z" style="fill:#806a52;"/></g></g></svg>