<?xml version="1.0" encoding="UTF-8" standalone="no"?>
<!DOCTYPE svg PUBLIC "-//W3C//DTD SVG 1.1//EN" "http://www.w3.org/Graphics/SVG/1.1/DTD/svg11.dtd">
<svg width="100%" height="100%" viewBox="0 0 1167 394" version="1.1" xmlns="http://www.w3.org/2000/svg" xmlns:xlink="http://www.w3.org/1999/xlink" xml:space="preserve" xmlns:serif="http://www.serif.com/" style="fill-rule:evenodd;clip-rule:evenodd;stroke-linejoin:round;stroke-miterlimit:2;">
    <g transform="matrix(1,0,0,1,-401.628,-482.407)">
        <g transform="matrix(1.5654,0,0,1.5654,1.17568,371.558)">
            <g transform="matrix(0.638813,0,0,0.374579,-3.21775,-86.7599)">
                <path d="M981.448,422.37C981.448,422.37 1020.98,466.014 1056.16,504.86C1090.67,542.958 1132.28,557.707 1172.83,546.217C1254.05,523.202 1384.95,486.113 1384.95,486.113C1384.95,486.113 1367.42,525.428 1350.23,563.979C1344.86,576.016 1344.32,592.412 1348.88,605.389C1353.43,618.367 1362.15,625.316 1370.91,622.941C1445.21,602.791 1570.7,568.76 1570.7,568.76C1570.7,568.76 1480.11,666.366 1429.69,720.684C1423.04,727.852 1419.18,740.6 1419.61,754C1420.04,767.401 1424.69,779.354 1431.77,785.241C1475.41,821.573 1544.39,878.992 1544.39,878.992C1544.39,878.992 1427.89,876.854 1361.84,875.641C1353.55,875.489 1345.93,883.402 1342.21,896.033C1338.49,908.665 1339.31,923.809 1344.33,935.061C1363.15,977.261 1384.95,1026.15 1384.95,1026.15C1384.95,1026.15 1291.27,999.606 1213.24,977.495C1146.69,958.638 1078.41,982.844 1021.77,1045.37C999.346,1070.13 981.448,1089.89 981.448,1089.89C981.448,1089.89 965.19,1071.94 944.246,1048.82C886.176,984.704 814.977,965.177 748.049,995.009C678.985,1025.79 601.313,1060.41 601.313,1060.41C601.313,1060.41 617.633,991.753 630.421,937.957C633.409,925.384 632.125,911.03 627.075,900.549C622.024,890.068 614.015,885.139 606.204,887.703C543.484,908.292 427.604,946.332 427.604,946.332C427.604,946.332 500.097,846.778 540.189,791.719C545.901,783.875 548.904,771.641 548.172,759.197C547.44,746.752 543.073,735.779 536.562,730.024C490.425,689.253 406.49,615.078 406.49,615.078C406.49,615.078 528.952,626.536 598.532,633.047C606.981,633.837 614.93,626.181 618.895,613.432C622.86,600.684 622.119,585.167 616.997,573.68C598.558,532.33 577.948,486.113 577.948,486.113C577.948,486.113 715.062,524.963 795.707,547.814C832.632,558.276 870.517,544.846 901.938,510.155C938.22,470.097 981.448,422.37 981.448,422.37Z" style="fill:rgb(232,72,70);"/>
            </g>
        </g>
    </g>
</svg>
