<?xml version="1.0" encoding="UTF-8" standalone="no"?>
<!DOCTYPE svg PUBLIC "-//W3C//DTD SVG 1.1//EN" "http://www.w3.org/Graphics/SVG/1.1/DTD/svg11.dtd">
<svg width="100%" height="100%" viewBox="0 0 68 84" version="1.1" xmlns="http://www.w3.org/2000/svg" xmlns:xlink="http://www.w3.org/1999/xlink" xml:space="preserve" xmlns:serif="http://www.serif.com/" style="fill-rule:evenodd;clip-rule:evenodd;stroke-linejoin:round;stroke-miterlimit:2;">
    <g transform="matrix(1,0,0,1,-683.552,-691.33)">
        <g transform="matrix(1.5654,0,0,1.5654,1.17568,371.558)">
            <g transform="matrix(0.319406,0,0,0.319406,301.175,-74.8873)">
                <g transform="matrix(1.2561,0,0,1.2561,-95.6235,-233.968)">
                    <circle cx="488.531" cy="919.074" r="19.191" style="fill:white;"/>
                </g>
                <g transform="matrix(1.2561,0,0,1.2561,-123.941,-233.968)">
                    <circle cx="488.531" cy="919.074" r="19.191" style="fill:white;"/>
                </g>
                <g transform="matrix(1.2561,0,0,1.2561,-154.235,-233.968)">
                    <circle cx="488.531" cy="919.074" r="19.191" style="fill:white;"/>
                </g>
                <g transform="matrix(1.2561,0,0,1.2561,-167.706,-210.565)">
                    <circle cx="488.531" cy="919.074" r="19.191" style="fill:white;"/>
                </g>
                <g transform="matrix(1.2561,0,0,1.2561,-167.706,-185.055)">
                    <circle cx="488.531" cy="919.074" r="19.191" style="fill:white;"/>
                </g>
                <g transform="matrix(1.2561,0,0,1.2561,-154.235,-160.95)">
                    <circle cx="488.531" cy="919.074" r="19.191" style="fill:white;"/>
                </g>
                <g transform="matrix(1.2561,0,0,1.2561,-138.686,-136.845)">
                    <circle cx="488.531" cy="919.074" r="19.191" style="fill:white;"/>
                </g>
                <g transform="matrix(1.2561,0,0,1.2561,-110.134,-136.845)">
                    <circle cx="488.531" cy="919.074" r="19.191" style="fill:white;"/>
                </g>
                <g transform="matrix(1.2561,0,0,1.2561,-94.4534,-160.95)">
                    <circle cx="488.531" cy="919.074" r="19.191" style="fill:white;"/>
                </g>
                <g transform="matrix(1.2561,0,0,1.2561,-82.4522,-185.758)">
                    <circle cx="488.531" cy="919.074" r="19.191" style="fill:white;"/>
                </g>
                <g transform="matrix(1.2561,0,0,1.2561,-80.6454,-209.863)">
                    <circle cx="488.531" cy="919.074" r="19.191" style="fill:white;"/>
                </g>
                <g transform="matrix(1,0,0,1,-28.3179,1.4042)">
                    <circle cx="488.531" cy="919.074" r="19.191" style="fill:rgb(124,39,80);"/>
                </g>
                <g transform="matrix(1,0,0,1,0.702098,1.4042)">
                    <circle cx="488.531" cy="919.074" r="19.191" style="fill:rgb(168,57,108);"/>
                </g>
                <g transform="matrix(1,0,0,1,-42.1259,25.5096)">
                    <circle cx="488.531" cy="919.074" r="19.191" style="fill:rgb(99,55,108);"/>
                </g>
                <g transform="matrix(1,0,0,1,-12.6378,25.5096)">
                    <circle cx="488.531" cy="919.074" r="19.191" style="fill:rgb(124,39,80);"/>
                </g>
                <g transform="matrix(1,0,0,1,29.4881,1.4042)">
                    <circle cx="488.531" cy="919.074" r="19.191" style="fill:rgb(168,57,108);"/>
                </g>
                <g transform="matrix(1,0,0,1,-42.1259,50.317)">
                    <circle cx="488.531" cy="919.074" r="19.191" style="fill:rgb(99,55,108);"/>
                </g>
                <g transform="matrix(1,0,0,1,14.173,25.5096)">
                    <circle cx="488.531" cy="919.074" r="19.191" style="fill:rgb(168,57,108);"/>
                </g>
                <g transform="matrix(1,0,0,1,-18.4886,50.317)">
                    <circle cx="488.531" cy="919.074" r="19.191" style="fill:rgb(99,55,108);"/>
                </g>
                <g transform="matrix(1,0,0,1,8.19114,48.9128)">
                    <circle cx="488.531" cy="919.074" r="19.191" style="fill:rgb(124,39,80);"/>
                </g>
                <g transform="matrix(1,0,0,1,44.4662,25.5096)">
                    <circle cx="488.531" cy="919.074" r="19.191" style="fill:rgb(168,57,108);"/>
                </g>
                <g transform="matrix(1,0,0,1,-28.3179,73.7203)">
                    <circle cx="488.531" cy="919.074" r="19.191" style="fill:rgb(99,55,108);"/>
                </g>
                <g transform="matrix(1,0,0,1,42.6595,48.9128)">
                    <circle cx="488.531" cy="919.074" r="19.191" style="fill:rgb(168,57,108);"/>
                </g>
                <g transform="matrix(1,0,0,1,-1.87226,71.848)">
                    <circle cx="488.531" cy="919.074" r="19.191" style="fill:rgb(99,55,108);"/>
                </g>
                <g transform="matrix(1,0,0,1,29.4881,73.7203)">
                    <circle cx="488.531" cy="919.074" r="19.191" style="fill:rgb(124,39,80);"/>
                </g>
                <g transform="matrix(1,0,0,1,-12.6378,97.5916)">
                    <circle cx="488.531" cy="919.074" r="19.191" style="fill:rgb(99,55,108);"/>
                </g>
                <g transform="matrix(1,0,0,1,14.173,97.5916)">
                    <circle cx="488.531" cy="919.074" r="19.191" style="fill:rgb(99,55,108);"/>
                </g>
                <path d="M432.732,891.38C432.732,891.38 434.786,903.439 489.233,903.549C548.02,903.667 542.125,889.64 542.125,889.64C542.125,889.64 534.07,887.711 527.615,887.711C521.978,887.711 518.651,891.724 510.226,891.256C501.8,890.788 502.999,888.773 499.723,883.625C496.446,878.476 492.754,874.002 488.308,874.002C483.861,874.002 480.677,880.588 477.532,885.634C474.456,890.567 475.191,888.881 470.043,890.051C464.894,891.221 457.838,887.547 452.689,887.547C447.54,887.547 432.732,891.38 432.732,891.38Z" style="fill:white;"/>
                <path d="M439.39,892.274C439.39,892.274 443.629,900.568 489.233,900.568C539.474,900.568 537.21,891.926 537.21,891.926C537.21,891.926 533.379,890.99 526.924,890.99C521.288,890.99 518.253,895.202 509.828,894.734C501.403,894.266 499.999,891.059 496.722,885.91C493.446,880.761 493.68,877.182 489.233,877.182C484.787,877.182 483.388,881.383 480.243,886.429C477.167,891.362 476.83,892.16 471.681,893.33C466.532,894.5 457.639,891.224 452.49,891.224C447.341,891.224 439.39,892.274 439.39,892.274Z" style="fill:rgb(133,171,72);"/>
                <clipPath id="_clip1">
                    <path d="M439.39,892.274C439.39,892.274 443.629,900.568 489.233,900.568C539.474,900.568 537.21,891.926 537.21,891.926C537.21,891.926 533.379,890.99 526.924,890.99C521.288,890.99 518.253,895.202 509.828,894.734C501.403,894.266 499.999,891.059 496.722,885.91C493.446,880.761 493.68,877.182 489.233,877.182C484.787,877.182 483.388,881.383 480.243,886.429C477.167,891.362 476.83,892.16 471.681,893.33C466.532,894.5 457.639,891.224 452.49,891.224C447.341,891.224 439.39,892.274 439.39,892.274Z"/>
                </clipPath>
                <g clip-path="url(#_clip1)">
                    <rect x="488.308" y="861.947" width="53.291" height="44.7" style="fill:rgb(136,200,85);"/>
                </g>
            </g>
        </g>
    </g>
</svg>
