<?xml version="1.0" encoding="UTF-8" standalone="no"?>
<!DOCTYPE svg PUBLIC "-//W3C//DTD SVG 1.1//EN" "http://www.w3.org/Graphics/SVG/1.1/DTD/svg11.dtd">
<svg width="100%" height="100%" viewBox="0 0 487 175" version="1.1" xmlns="http://www.w3.org/2000/svg" xmlns:xlink="http://www.w3.org/1999/xlink" xml:space="preserve" xmlns:serif="http://www.serif.com/" style="fill-rule:evenodd;clip-rule:evenodd;stroke-linejoin:round;stroke-miterlimit:2;">
    <g transform="matrix(1,0,0,1,-1151.75,-926.602)">
        <g transform="matrix(1.5654,0,0,1.5654,1.17568,371.558)">
            <g transform="matrix(0.358119,0,0,0.347892,442.615,82.9415)">
                <path d="M1656.8,974.299C1663.9,967.799 1668.06,958.567 1668.31,948.794C1668.56,939.021 1664.86,929.579 1658.11,922.709C1624.78,888.814 1567.82,830.896 1538.02,800.59C1525.54,787.898 1508.7,780.781 1491.16,780.781C1369.04,780.781 880.027,780.781 880.027,780.781C844.942,780.781 816.457,810.103 816.457,846.219L816.457,1035.54C816.457,1071.66 844.942,1100.98 880.027,1100.98L1493.16,1100.98C1509.51,1100.98 1525.29,1094.8 1537.5,1083.61C1566.77,1056.79 1623.11,1005.17 1656.8,974.299Z" style="fill:rgb(251,213,40);"/>
            </g>
        </g>
    </g>
</svg>
