<?xml version="1.0" encoding="UTF-8" standalone="no"?>
<!DOCTYPE svg PUBLIC "-//W3C//DTD SVG 1.1//EN" "http://www.w3.org/Graphics/SVG/1.1/DTD/svg11.dtd">
<svg width="100%" height="100%" viewBox="0 0 2868 2538" version="1.1" xmlns="http://www.w3.org/2000/svg" xmlns:xlink="http://www.w3.org/1999/xlink" xml:space="preserve" xmlns:serif="http://www.serif.com/" style="fill-rule:evenodd;clip-rule:evenodd;stroke-linejoin:round;stroke-miterlimit:2;">
    <g transform="matrix(1,0,0,1,488.593,537.876)">
        <g transform="matrix(1.5654,0,0,1.5654,1.17568,371.558)">
            <g transform="matrix(2.56217,1.52851,-1.52851,2.56217,298.697,-847.479)">
                <path d="M328.394,390.377C328.394,388.991 328.365,387.611 328.311,386.238L234.684,388.298L327.186,374.609C326.451,369.857 325.388,365.213 324.022,360.7L234.684,384.015L320.081,349.913C317.024,342.82 313.189,336.141 308.682,329.984L237.951,377.708L301.505,321.237C296.517,315.797 290.948,310.897 284.897,306.638L228.375,381.39L275.104,300.537C268.497,296.923 261.448,294.015 254.058,291.917L228.154,377.708L242.784,289.399C237.917,288.599 232.933,288.144 227.86,288.056L226.055,381.39L216,288.527C210.021,289.11 204.192,290.208 198.559,291.776L222.705,376.119L187.353,295.609C179.726,298.727 172.56,302.739 165.984,307.516L223.275,380.654C223.242,380.68 223.204,380.698 223.175,380.728L156.466,315.34C151.469,319.977 146.936,325.107 142.943,330.652L214.81,379.931L136.33,341.12C132.792,347.551 129.925,354.402 127.825,361.581L219.181,387.687L125.051,373.809C124.173,379.201 123.716,384.735 123.716,390.377C123.716,393.802 123.887,397.187 124.215,400.525L219.181,391.242C221.081,390.905 223.63,390.812 226.694,390.923C229.125,397.433 232.276,406.907 234.628,417.655C238.043,433.264 240.315,454.331 234.091,472.21C233.039,471.987 231.926,471.863 230.771,471.863C224.37,471.863 219.181,475.545 219.181,480.087C219.181,484.628 224.37,488.31 230.771,488.31C237.173,488.31 242.363,484.628 242.363,480.087C242.363,476.857 239.732,474.07 235.915,472.726C238.244,466.03 239.588,458.522 239.881,450.255C240.236,440.247 239.092,429.13 236.481,417.211C234.199,406.793 231.175,397.562 228.763,391.023C251.584,392.389 298.167,403.187 326.478,410.179C327.734,403.772 328.394,397.151 328.394,390.377Z" style="fill:rgb(102,161,22);fill-rule:nonzero;"/>
            </g>
            <g transform="matrix(2.95433,0.415924,-0.415924,2.95433,-205.546,-541.721)">
                <path d="M328.394,390.377C328.394,388.991 328.365,387.611 328.311,386.238L234.684,388.298L327.186,374.609C326.451,369.857 325.388,365.213 324.022,360.7L234.684,384.015L320.081,349.913C317.024,342.82 313.189,336.141 308.682,329.984L237.951,377.708L301.505,321.237C296.517,315.797 290.948,310.897 284.897,306.638L228.375,381.39L275.104,300.537C268.497,296.923 261.448,294.015 254.058,291.917L228.154,377.708L242.784,289.399C237.917,288.599 232.933,288.144 227.86,288.056L226.055,381.39L216,288.527C210.021,289.11 204.192,290.208 198.559,291.776L222.705,376.119L187.353,295.609C179.726,298.727 172.56,302.739 165.984,307.516L223.275,380.654C223.242,380.68 223.204,380.698 223.175,380.728L156.466,315.34C151.469,319.977 146.936,325.107 142.943,330.652L214.81,379.931L136.33,341.12C132.792,347.551 129.925,354.402 127.825,361.581L219.181,387.687L125.051,373.809C124.173,379.201 123.716,384.735 123.716,390.377C123.716,393.802 123.887,397.187 124.215,400.525L219.181,391.242C221.081,390.905 223.63,390.812 226.694,390.923C229.125,397.433 232.276,406.907 234.628,417.655C238.043,433.264 240.315,454.331 234.091,472.21C233.039,471.987 231.926,471.863 230.771,471.863C224.37,471.863 219.181,475.545 219.181,480.087C219.181,484.628 224.37,488.31 230.771,488.31C237.173,488.31 242.363,484.628 242.363,480.087C242.363,476.857 239.732,474.07 235.915,472.726C238.244,466.03 239.588,458.522 239.881,450.255C240.236,440.247 239.092,429.13 236.481,417.211C234.199,406.793 231.175,397.562 228.763,391.023C251.584,392.389 298.167,403.187 326.478,410.179C327.734,403.772 328.394,397.151 328.394,390.377Z" style="fill:rgb(102,161,22);fill-rule:nonzero;"/>
            </g>
            <g transform="matrix(-0.504982,2.94041,-2.94041,-0.504982,1240.2,-133.642)">
                <path d="M328.394,390.377C328.394,388.991 328.365,387.611 328.311,386.238L234.684,388.298L327.186,374.609C326.451,369.857 325.388,365.213 324.022,360.7L234.684,384.015L320.081,349.913C317.024,342.82 313.189,336.141 308.682,329.984L237.951,377.708L301.505,321.237C296.517,315.797 290.948,310.897 284.897,306.638L228.375,381.39L275.104,300.537C268.497,296.923 261.448,294.015 254.058,291.917L228.154,377.708L242.784,289.399C237.917,288.599 232.933,288.144 227.86,288.056L226.055,381.39L216,288.527C210.021,289.11 204.192,290.208 198.559,291.776L222.705,376.119L187.353,295.609C179.726,298.727 172.56,302.739 165.984,307.516L223.275,380.654C223.242,380.68 223.204,380.698 223.175,380.728L156.466,315.34C151.469,319.977 146.936,325.107 142.943,330.652L214.81,379.931L136.33,341.12C132.792,347.551 129.925,354.402 127.825,361.581L219.181,387.687L125.051,373.809C124.173,379.201 123.716,384.735 123.716,390.377C123.716,393.802 123.887,397.187 124.215,400.525L219.181,391.242C221.081,390.905 223.63,390.812 226.694,390.923C229.125,397.433 232.276,406.907 234.628,417.655C238.043,433.264 240.315,454.331 234.091,472.21C233.039,471.987 231.926,471.863 230.771,471.863C224.37,471.863 219.181,475.545 219.181,480.087C219.181,484.628 224.37,488.31 230.771,488.31C237.173,488.31 242.363,484.628 242.363,480.087C242.363,476.857 239.732,474.07 235.915,472.726C238.244,466.03 239.588,458.522 239.881,450.255C240.236,440.247 239.092,429.13 236.481,417.211C234.199,406.793 231.175,397.562 228.763,391.023C251.584,392.389 298.167,403.187 326.478,410.179C327.734,403.772 328.394,397.151 328.394,390.377Z" style="fill:rgb(102,161,22);fill-rule:nonzero;"/>
            </g>
            <g transform="matrix(2.83741,1.16385,-1.16385,2.83741,297.844,-551.349)">
                <path d="M140.984,352.479L47.357,354.538L139.859,340.85C139.125,336.097 138.062,331.453 136.696,326.94L47.357,350.255L132.755,316.153C129.698,309.06 125.863,302.381 121.355,296.225L50.625,343.948L114.179,287.478C109.191,282.037 103.622,277.138 97.57,272.878L41.048,347.63L87.776,266.777C81.169,263.163 74.121,260.254 66.731,258.157L40.827,343.948L55.458,255.639C50.59,254.839 45.606,254.383 40.533,254.295L38.728,347.63L28.674,254.768C22.694,255.351 16.865,256.448 11.232,258.016L35.378,342.359L0.026,261.849C-7.6,264.967 -14.766,268.979 -21.342,273.755L36.524,347.63L-30.86,281.58C-35.857,286.217 -40.39,291.347 -44.382,296.893L27.483,346.171L-50.996,307.359C-54.534,313.79 -57.4,320.643 -59.502,327.821L31.854,353.926L-62.274,340.049C-63.152,345.441 -63.61,350.976 -63.61,356.617C-63.61,360.042 -63.439,363.427 -63.11,366.766L31.854,357.482C47.376,354.728 105.884,368.203 139.151,376.419C140.408,370.012 141.067,363.392 141.067,356.617C141.067,355.23 141.039,353.852 140.984,352.479Z" style="fill:rgb(67,112,19);fill-rule:nonzero;"/>
            </g>
            <g transform="matrix(3.00666,0.604539,-0.604539,3.00666,463.816,-331.216)">
                <path d="M140.984,352.479L47.357,354.538L139.859,340.85C139.125,336.097 138.062,331.453 136.696,326.94L47.357,350.255L132.755,316.153C129.698,309.06 125.863,302.381 121.355,296.225L50.625,343.948L114.179,287.478C109.191,282.037 103.622,277.138 97.57,272.878L41.048,347.63L87.776,266.777C81.169,263.163 74.121,260.254 66.731,258.157L40.827,343.948L55.458,255.639C50.59,254.839 45.606,254.383 40.533,254.295L38.728,347.63L28.674,254.768C22.694,255.351 16.865,256.448 11.232,258.016L35.378,342.359L0.026,261.849C-7.6,264.967 -14.766,268.979 -21.342,273.755L36.524,347.63L-30.86,281.58C-35.857,286.217 -40.39,291.347 -44.382,296.893L27.483,346.171L-50.996,307.359C-54.534,313.79 -57.4,320.643 -59.502,327.821L31.854,353.926L-62.274,340.049C-63.152,345.441 -63.61,350.976 -63.61,356.617C-63.61,360.042 -63.439,363.427 -63.11,366.766L31.854,357.482C47.376,354.728 105.884,368.203 139.151,376.419C140.408,370.012 141.067,363.392 141.067,356.617C141.067,355.23 141.039,353.852 140.984,352.479Z" style="fill:rgb(67,112,19);fill-rule:nonzero;"/>
            </g>
            <g transform="matrix(2.56217,1.52851,-1.52851,2.56217,40.7295,-625.274)">
                <path d="M328.394,390.377C328.394,388.991 328.365,387.611 328.311,386.238L234.684,388.298L327.186,374.609C326.451,369.857 325.388,365.213 324.022,360.7L234.684,384.015L320.081,349.913C317.024,342.82 313.189,336.141 308.682,329.984L237.951,377.708L301.505,321.237C296.517,315.797 290.948,310.897 284.897,306.638L228.375,381.39L275.104,300.537C268.497,296.923 261.448,294.015 254.058,291.917L228.154,377.708L242.784,289.399C237.917,288.599 232.933,288.144 227.86,288.056L226.055,381.39L216,288.527C210.021,289.11 204.192,290.208 198.559,291.776L222.705,376.119L187.353,295.609C179.726,298.727 172.56,302.739 165.984,307.516L223.275,380.654C223.242,380.68 223.204,380.698 223.175,380.728L156.466,315.34C151.469,319.977 146.936,325.107 142.943,330.652L214.81,379.931L136.33,341.12C132.792,347.551 129.925,354.402 127.825,361.581L219.181,387.687L125.051,373.809C124.173,379.201 123.716,384.735 123.716,390.377C123.716,393.802 123.887,397.187 124.215,400.525L219.181,391.242C221.081,390.905 223.63,390.812 226.694,390.923C229.125,397.433 232.276,406.907 234.628,417.655C238.043,433.264 240.315,454.331 234.091,472.21C233.039,471.987 231.926,471.863 230.771,471.863C224.37,471.863 219.181,475.545 219.181,480.087C219.181,484.628 224.37,488.31 230.771,488.31C237.173,488.31 242.363,484.628 242.363,480.087C242.363,476.857 239.732,474.07 235.915,472.726C238.244,466.03 239.588,458.522 239.881,450.255C240.236,440.247 239.092,429.13 236.481,417.211C234.199,406.793 231.175,397.562 228.763,391.023C251.584,392.389 298.167,403.187 326.478,410.179C327.734,403.772 328.394,397.151 328.394,390.377Z" style="fill:rgb(102,161,22);fill-rule:nonzero;"/>
            </g>
        </g>
        <g transform="matrix(1.5654,0,0,1.5654,1.17568,371.558)">
            <g transform="matrix(0.179167,-0.983819,0.983819,0.179167,474.239,662.188)">
                <g transform="matrix(2.56217,1.52851,-1.52851,2.56217,298.697,-847.479)">
                    <path d="M328.394,390.377C328.394,388.991 328.365,387.611 328.311,386.238L234.684,388.298L327.186,374.609C326.451,369.857 325.388,365.213 324.022,360.7L234.684,384.015L320.081,349.913C317.024,342.82 313.189,336.141 308.682,329.984L237.951,377.708L301.505,321.237C296.517,315.797 290.948,310.897 284.897,306.638L228.375,381.39L275.104,300.537C268.497,296.923 261.448,294.015 254.058,291.917L228.154,377.708L242.784,289.399C237.917,288.599 232.933,288.144 227.86,288.056L226.055,381.39L216,288.527C210.021,289.11 204.192,290.208 198.559,291.776L222.705,376.119L187.353,295.609C179.726,298.727 172.56,302.739 165.984,307.516L223.275,380.654C223.242,380.68 223.204,380.698 223.175,380.728L156.466,315.34C151.469,319.977 146.936,325.107 142.943,330.652L214.81,379.931L136.33,341.12C132.792,347.551 129.925,354.402 127.825,361.581L219.181,387.687L125.051,373.809C124.173,379.201 123.716,384.735 123.716,390.377C123.716,393.802 123.887,397.187 124.215,400.525L219.181,391.242C221.081,390.905 223.63,390.812 226.694,390.923C229.125,397.433 232.276,406.907 234.628,417.655C238.043,433.264 240.315,454.331 234.091,472.21C233.039,471.987 231.926,471.863 230.771,471.863C224.37,471.863 219.181,475.545 219.181,480.087C219.181,484.628 224.37,488.31 230.771,488.31C237.173,488.31 242.363,484.628 242.363,480.087C242.363,476.857 239.732,474.07 235.915,472.726C238.244,466.03 239.588,458.522 239.881,450.255C240.236,440.247 239.092,429.13 236.481,417.211C234.199,406.793 231.175,397.562 228.763,391.023C251.584,392.389 298.167,403.187 326.478,410.179C327.734,403.772 328.394,397.151 328.394,390.377Z" style="fill:rgb(102,161,22);fill-rule:nonzero;"/>
                </g>
                <g transform="matrix(2.95433,0.415924,-0.415924,2.95433,-205.546,-541.721)">
                    <path d="M328.394,390.377C328.394,388.991 328.365,387.611 328.311,386.238L234.684,388.298L327.186,374.609C326.451,369.857 325.388,365.213 324.022,360.7L234.684,384.015L320.081,349.913C317.024,342.82 313.189,336.141 308.682,329.984L237.951,377.708L301.505,321.237C296.517,315.797 290.948,310.897 284.897,306.638L228.375,381.39L275.104,300.537C268.497,296.923 261.448,294.015 254.058,291.917L228.154,377.708L242.784,289.399C237.917,288.599 232.933,288.144 227.86,288.056L226.055,381.39L216,288.527C210.021,289.11 204.192,290.208 198.559,291.776L222.705,376.119L187.353,295.609C179.726,298.727 172.56,302.739 165.984,307.516L223.275,380.654C223.242,380.68 223.204,380.698 223.175,380.728L156.466,315.34C151.469,319.977 146.936,325.107 142.943,330.652L214.81,379.931L136.33,341.12C132.792,347.551 129.925,354.402 127.825,361.581L219.181,387.687L125.051,373.809C124.173,379.201 123.716,384.735 123.716,390.377C123.716,393.802 123.887,397.187 124.215,400.525L219.181,391.242C221.081,390.905 223.63,390.812 226.694,390.923C229.125,397.433 232.276,406.907 234.628,417.655C238.043,433.264 240.315,454.331 234.091,472.21C233.039,471.987 231.926,471.863 230.771,471.863C224.37,471.863 219.181,475.545 219.181,480.087C219.181,484.628 224.37,488.31 230.771,488.31C237.173,488.31 242.363,484.628 242.363,480.087C242.363,476.857 239.732,474.07 235.915,472.726C238.244,466.03 239.588,458.522 239.881,450.255C240.236,440.247 239.092,429.13 236.481,417.211C234.199,406.793 231.175,397.562 228.763,391.023C251.584,392.389 298.167,403.187 326.478,410.179C327.734,403.772 328.394,397.151 328.394,390.377Z" style="fill:rgb(102,161,22);fill-rule:nonzero;"/>
                </g>
                <g transform="matrix(-0.504982,2.94041,-2.94041,-0.504982,1240.2,-133.642)">
                    <path d="M328.394,390.377C328.394,388.991 328.365,387.611 328.311,386.238L234.684,388.298L327.186,374.609C326.451,369.857 325.388,365.213 324.022,360.7L234.684,384.015L320.081,349.913C317.024,342.82 313.189,336.141 308.682,329.984L237.951,377.708L301.505,321.237C296.517,315.797 290.948,310.897 284.897,306.638L228.375,381.39L275.104,300.537C268.497,296.923 261.448,294.015 254.058,291.917L228.154,377.708L242.784,289.399C237.917,288.599 232.933,288.144 227.86,288.056L226.055,381.39L216,288.527C210.021,289.11 204.192,290.208 198.559,291.776L222.705,376.119L187.353,295.609C179.726,298.727 172.56,302.739 165.984,307.516L223.275,380.654C223.242,380.68 223.204,380.698 223.175,380.728L156.466,315.34C151.469,319.977 146.936,325.107 142.943,330.652L214.81,379.931L136.33,341.12C132.792,347.551 129.925,354.402 127.825,361.581L219.181,387.687L125.051,373.809C124.173,379.201 123.716,384.735 123.716,390.377C123.716,393.802 123.887,397.187 124.215,400.525L219.181,391.242C221.081,390.905 223.63,390.812 226.694,390.923C229.125,397.433 232.276,406.907 234.628,417.655C238.043,433.264 240.315,454.331 234.091,472.21C233.039,471.987 231.926,471.863 230.771,471.863C224.37,471.863 219.181,475.545 219.181,480.087C219.181,484.628 224.37,488.31 230.771,488.31C237.173,488.31 242.363,484.628 242.363,480.087C242.363,476.857 239.732,474.07 235.915,472.726C238.244,466.03 239.588,458.522 239.881,450.255C240.236,440.247 239.092,429.13 236.481,417.211C234.199,406.793 231.175,397.562 228.763,391.023C251.584,392.389 298.167,403.187 326.478,410.179C327.734,403.772 328.394,397.151 328.394,390.377Z" style="fill:rgb(102,161,22);fill-rule:nonzero;"/>
                </g>
                <g transform="matrix(2.83741,1.16385,-1.16385,2.83741,297.844,-551.349)">
                    <path d="M140.984,352.479L47.357,354.538L139.859,340.85C139.125,336.097 138.062,331.453 136.696,326.94L47.357,350.255L132.755,316.153C129.698,309.06 125.863,302.381 121.355,296.225L50.625,343.948L114.179,287.478C109.191,282.037 103.622,277.138 97.57,272.878L41.048,347.63L87.776,266.777C81.169,263.163 74.121,260.254 66.731,258.157L40.827,343.948L55.458,255.639C50.59,254.839 45.606,254.383 40.533,254.295L38.728,347.63L28.674,254.768C22.694,255.351 16.865,256.448 11.232,258.016L35.378,342.359L0.026,261.849C-7.6,264.967 -14.766,268.979 -21.342,273.755L36.524,347.63L-30.86,281.58C-35.857,286.217 -40.39,291.347 -44.382,296.893L27.483,346.171L-50.996,307.359C-54.534,313.79 -57.4,320.643 -59.502,327.821L31.854,353.926L-62.274,340.049C-63.152,345.441 -63.61,350.976 -63.61,356.617C-63.61,360.042 -63.439,363.427 -63.11,366.766L31.854,357.482C47.376,354.728 105.884,368.203 139.151,376.419C140.408,370.012 141.067,363.392 141.067,356.617C141.067,355.23 141.039,353.852 140.984,352.479Z" style="fill:rgb(67,112,19);fill-rule:nonzero;"/>
                </g>
                <g transform="matrix(3.00666,0.604539,-0.604539,3.00666,463.816,-331.216)">
                    <path d="M140.984,352.479L47.357,354.538L139.859,340.85C139.125,336.097 138.062,331.453 136.696,326.94L47.357,350.255L132.755,316.153C129.698,309.06 125.863,302.381 121.355,296.225L50.625,343.948L114.179,287.478C109.191,282.037 103.622,277.138 97.57,272.878L41.048,347.63L87.776,266.777C81.169,263.163 74.121,260.254 66.731,258.157L40.827,343.948L55.458,255.639C50.59,254.839 45.606,254.383 40.533,254.295L38.728,347.63L28.674,254.768C22.694,255.351 16.865,256.448 11.232,258.016L35.378,342.359L0.026,261.849C-7.6,264.967 -14.766,268.979 -21.342,273.755L36.524,347.63L-30.86,281.58C-35.857,286.217 -40.39,291.347 -44.382,296.893L27.483,346.171L-50.996,307.359C-54.534,313.79 -57.4,320.643 -59.502,327.821L31.854,353.926L-62.274,340.049C-63.152,345.441 -63.61,350.976 -63.61,356.617C-63.61,360.042 -63.439,363.427 -63.11,366.766L31.854,357.482C47.376,354.728 105.884,368.203 139.151,376.419C140.408,370.012 141.067,363.392 141.067,356.617C141.067,355.23 141.039,353.852 140.984,352.479Z" style="fill:rgb(67,112,19);fill-rule:nonzero;"/>
                </g>
                <g transform="matrix(2.56217,1.52851,-1.52851,2.56217,40.7295,-625.274)">
                    <path d="M328.394,390.377C328.394,388.991 328.365,387.611 328.311,386.238L234.684,388.298L327.186,374.609C326.451,369.857 325.388,365.213 324.022,360.7L234.684,384.015L320.081,349.913C317.024,342.82 313.189,336.141 308.682,329.984L237.951,377.708L301.505,321.237C296.517,315.797 290.948,310.897 284.897,306.638L228.375,381.39L275.104,300.537C268.497,296.923 261.448,294.015 254.058,291.917L228.154,377.708L242.784,289.399C237.917,288.599 232.933,288.144 227.86,288.056L226.055,381.39L216,288.527C210.021,289.11 204.192,290.208 198.559,291.776L222.705,376.119L187.353,295.609C179.726,298.727 172.56,302.739 165.984,307.516L223.275,380.654C223.242,380.68 223.204,380.698 223.175,380.728L156.466,315.34C151.469,319.977 146.936,325.107 142.943,330.652L214.81,379.931L136.33,341.12C132.792,347.551 129.925,354.402 127.825,361.581L219.181,387.687L125.051,373.809C124.173,379.201 123.716,384.735 123.716,390.377C123.716,393.802 123.887,397.187 124.215,400.525L219.181,391.242C221.081,390.905 223.63,390.812 226.694,390.923C229.125,397.433 232.276,406.907 234.628,417.655C238.043,433.264 240.315,454.331 234.091,472.21C233.039,471.987 231.926,471.863 230.771,471.863C224.37,471.863 219.181,475.545 219.181,480.087C219.181,484.628 224.37,488.31 230.771,488.31C237.173,488.31 242.363,484.628 242.363,480.087C242.363,476.857 239.732,474.07 235.915,472.726C238.244,466.03 239.588,458.522 239.881,450.255C240.236,440.247 239.092,429.13 236.481,417.211C234.199,406.793 231.175,397.562 228.763,391.023C251.584,392.389 298.167,403.187 326.478,410.179C327.734,403.772 328.394,397.151 328.394,390.377Z" style="fill:rgb(102,161,22);fill-rule:nonzero;"/>
                </g>
            </g>
        </g>
        <g transform="matrix(1.5654,0,0,1.5654,1.17568,371.558)">
            <g transform="matrix(-0.99926,0.0384618,-0.0384618,-0.99926,1217.83,431.41)">
                <g transform="matrix(2.56217,1.52851,-1.52851,2.56217,298.697,-847.479)">
                    <path d="M328.394,390.377C328.394,388.991 328.365,387.611 328.311,386.238L234.684,388.298L327.186,374.609C326.451,369.857 325.388,365.213 324.022,360.7L234.684,384.015L320.081,349.913C317.024,342.82 313.189,336.141 308.682,329.984L237.951,377.708L301.505,321.237C296.517,315.797 290.948,310.897 284.897,306.638L228.375,381.39L275.104,300.537C268.497,296.923 261.448,294.015 254.058,291.917L228.154,377.708L242.784,289.399C237.917,288.599 232.933,288.144 227.86,288.056L226.055,381.39L216,288.527C210.021,289.11 204.192,290.208 198.559,291.776L222.705,376.119L187.353,295.609C179.726,298.727 172.56,302.739 165.984,307.516L223.275,380.654C223.242,380.68 223.204,380.698 223.175,380.728L156.466,315.34C151.469,319.977 146.936,325.107 142.943,330.652L214.81,379.931L136.33,341.12C132.792,347.551 129.925,354.402 127.825,361.581L219.181,387.687L125.051,373.809C124.173,379.201 123.716,384.735 123.716,390.377C123.716,393.802 123.887,397.187 124.215,400.525L219.181,391.242C221.081,390.905 223.63,390.812 226.694,390.923C229.125,397.433 232.276,406.907 234.628,417.655C238.043,433.264 240.315,454.331 234.091,472.21C233.039,471.987 231.926,471.863 230.771,471.863C224.37,471.863 219.181,475.545 219.181,480.087C219.181,484.628 224.37,488.31 230.771,488.31C237.173,488.31 242.363,484.628 242.363,480.087C242.363,476.857 239.732,474.07 235.915,472.726C238.244,466.03 239.588,458.522 239.881,450.255C240.236,440.247 239.092,429.13 236.481,417.211C234.199,406.793 231.175,397.562 228.763,391.023C251.584,392.389 298.167,403.187 326.478,410.179C327.734,403.772 328.394,397.151 328.394,390.377Z" style="fill:rgb(102,161,22);fill-rule:nonzero;"/>
                </g>
                <g transform="matrix(2.95433,0.415924,-0.415924,2.95433,-205.546,-541.721)">
                    <path d="M328.394,390.377C328.394,388.991 328.365,387.611 328.311,386.238L234.684,388.298L327.186,374.609C326.451,369.857 325.388,365.213 324.022,360.7L234.684,384.015L320.081,349.913C317.024,342.82 313.189,336.141 308.682,329.984L237.951,377.708L301.505,321.237C296.517,315.797 290.948,310.897 284.897,306.638L228.375,381.39L275.104,300.537C268.497,296.923 261.448,294.015 254.058,291.917L228.154,377.708L242.784,289.399C237.917,288.599 232.933,288.144 227.86,288.056L226.055,381.39L216,288.527C210.021,289.11 204.192,290.208 198.559,291.776L222.705,376.119L187.353,295.609C179.726,298.727 172.56,302.739 165.984,307.516L223.275,380.654C223.242,380.68 223.204,380.698 223.175,380.728L156.466,315.34C151.469,319.977 146.936,325.107 142.943,330.652L214.81,379.931L136.33,341.12C132.792,347.551 129.925,354.402 127.825,361.581L219.181,387.687L125.051,373.809C124.173,379.201 123.716,384.735 123.716,390.377C123.716,393.802 123.887,397.187 124.215,400.525L219.181,391.242C221.081,390.905 223.63,390.812 226.694,390.923C229.125,397.433 232.276,406.907 234.628,417.655C238.043,433.264 240.315,454.331 234.091,472.21C233.039,471.987 231.926,471.863 230.771,471.863C224.37,471.863 219.181,475.545 219.181,480.087C219.181,484.628 224.37,488.31 230.771,488.31C237.173,488.31 242.363,484.628 242.363,480.087C242.363,476.857 239.732,474.07 235.915,472.726C238.244,466.03 239.588,458.522 239.881,450.255C240.236,440.247 239.092,429.13 236.481,417.211C234.199,406.793 231.175,397.562 228.763,391.023C251.584,392.389 298.167,403.187 326.478,410.179C327.734,403.772 328.394,397.151 328.394,390.377Z" style="fill:rgb(102,161,22);fill-rule:nonzero;"/>
                </g>
                <g transform="matrix(-0.504982,2.94041,-2.94041,-0.504982,1240.2,-133.642)">
                    <path d="M328.394,390.377C328.394,388.991 328.365,387.611 328.311,386.238L234.684,388.298L327.186,374.609C326.451,369.857 325.388,365.213 324.022,360.7L234.684,384.015L320.081,349.913C317.024,342.82 313.189,336.141 308.682,329.984L237.951,377.708L301.505,321.237C296.517,315.797 290.948,310.897 284.897,306.638L228.375,381.39L275.104,300.537C268.497,296.923 261.448,294.015 254.058,291.917L228.154,377.708L242.784,289.399C237.917,288.599 232.933,288.144 227.86,288.056L226.055,381.39L216,288.527C210.021,289.11 204.192,290.208 198.559,291.776L222.705,376.119L187.353,295.609C179.726,298.727 172.56,302.739 165.984,307.516L223.275,380.654C223.242,380.68 223.204,380.698 223.175,380.728L156.466,315.34C151.469,319.977 146.936,325.107 142.943,330.652L214.81,379.931L136.33,341.12C132.792,347.551 129.925,354.402 127.825,361.581L219.181,387.687L125.051,373.809C124.173,379.201 123.716,384.735 123.716,390.377C123.716,393.802 123.887,397.187 124.215,400.525L219.181,391.242C221.081,390.905 223.63,390.812 226.694,390.923C229.125,397.433 232.276,406.907 234.628,417.655C238.043,433.264 240.315,454.331 234.091,472.21C233.039,471.987 231.926,471.863 230.771,471.863C224.37,471.863 219.181,475.545 219.181,480.087C219.181,484.628 224.37,488.31 230.771,488.31C237.173,488.31 242.363,484.628 242.363,480.087C242.363,476.857 239.732,474.07 235.915,472.726C238.244,466.03 239.588,458.522 239.881,450.255C240.236,440.247 239.092,429.13 236.481,417.211C234.199,406.793 231.175,397.562 228.763,391.023C251.584,392.389 298.167,403.187 326.478,410.179C327.734,403.772 328.394,397.151 328.394,390.377Z" style="fill:rgb(102,161,22);fill-rule:nonzero;"/>
                </g>
                <g transform="matrix(2.83741,1.16385,-1.16385,2.83741,297.844,-551.349)">
                    <path d="M140.984,352.479L47.357,354.538L139.859,340.85C139.125,336.097 138.062,331.453 136.696,326.94L47.357,350.255L132.755,316.153C129.698,309.06 125.863,302.381 121.355,296.225L50.625,343.948L114.179,287.478C109.191,282.037 103.622,277.138 97.57,272.878L41.048,347.63L87.776,266.777C81.169,263.163 74.121,260.254 66.731,258.157L40.827,343.948L55.458,255.639C50.59,254.839 45.606,254.383 40.533,254.295L38.728,347.63L28.674,254.768C22.694,255.351 16.865,256.448 11.232,258.016L35.378,342.359L0.026,261.849C-7.6,264.967 -14.766,268.979 -21.342,273.755L36.524,347.63L-30.86,281.58C-35.857,286.217 -40.39,291.347 -44.382,296.893L27.483,346.171L-50.996,307.359C-54.534,313.79 -57.4,320.643 -59.502,327.821L31.854,353.926L-62.274,340.049C-63.152,345.441 -63.61,350.976 -63.61,356.617C-63.61,360.042 -63.439,363.427 -63.11,366.766L31.854,357.482C47.376,354.728 105.884,368.203 139.151,376.419C140.408,370.012 141.067,363.392 141.067,356.617C141.067,355.23 141.039,353.852 140.984,352.479Z" style="fill:rgb(67,112,19);fill-rule:nonzero;"/>
                </g>
                <g transform="matrix(3.00666,0.604539,-0.604539,3.00666,463.816,-331.216)">
                    <path d="M140.984,352.479L47.357,354.538L139.859,340.85C139.125,336.097 138.062,331.453 136.696,326.94L47.357,350.255L132.755,316.153C129.698,309.06 125.863,302.381 121.355,296.225L50.625,343.948L114.179,287.478C109.191,282.037 103.622,277.138 97.57,272.878L41.048,347.63L87.776,266.777C81.169,263.163 74.121,260.254 66.731,258.157L40.827,343.948L55.458,255.639C50.59,254.839 45.606,254.383 40.533,254.295L38.728,347.63L28.674,254.768C22.694,255.351 16.865,256.448 11.232,258.016L35.378,342.359L0.026,261.849C-7.6,264.967 -14.766,268.979 -21.342,273.755L36.524,347.63L-30.86,281.58C-35.857,286.217 -40.39,291.347 -44.382,296.893L27.483,346.171L-50.996,307.359C-54.534,313.79 -57.4,320.643 -59.502,327.821L31.854,353.926L-62.274,340.049C-63.152,345.441 -63.61,350.976 -63.61,356.617C-63.61,360.042 -63.439,363.427 -63.11,366.766L31.854,357.482C47.376,354.728 105.884,368.203 139.151,376.419C140.408,370.012 141.067,363.392 141.067,356.617C141.067,355.23 141.039,353.852 140.984,352.479Z" style="fill:rgb(67,112,19);fill-rule:nonzero;"/>
                </g>
                <g transform="matrix(2.56217,1.52851,-1.52851,2.56217,40.7295,-625.274)">
                    <path d="M328.394,390.377C328.394,388.991 328.365,387.611 328.311,386.238L234.684,388.298L327.186,374.609C326.451,369.857 325.388,365.213 324.022,360.7L234.684,384.015L320.081,349.913C317.024,342.82 313.189,336.141 308.682,329.984L237.951,377.708L301.505,321.237C296.517,315.797 290.948,310.897 284.897,306.638L228.375,381.39L275.104,300.537C268.497,296.923 261.448,294.015 254.058,291.917L228.154,377.708L242.784,289.399C237.917,288.599 232.933,288.144 227.86,288.056L226.055,381.39L216,288.527C210.021,289.11 204.192,290.208 198.559,291.776L222.705,376.119L187.353,295.609C179.726,298.727 172.56,302.739 165.984,307.516L223.275,380.654C223.242,380.68 223.204,380.698 223.175,380.728L156.466,315.34C151.469,319.977 146.936,325.107 142.943,330.652L214.81,379.931L136.33,341.12C132.792,347.551 129.925,354.402 127.825,361.581L219.181,387.687L125.051,373.809C124.173,379.201 123.716,384.735 123.716,390.377C123.716,393.802 123.887,397.187 124.215,400.525L219.181,391.242C221.081,390.905 223.63,390.812 226.694,390.923C229.125,397.433 232.276,406.907 234.628,417.655C238.043,433.264 240.315,454.331 234.091,472.21C233.039,471.987 231.926,471.863 230.771,471.863C224.37,471.863 219.181,475.545 219.181,480.087C219.181,484.628 224.37,488.31 230.771,488.31C237.173,488.31 242.363,484.628 242.363,480.087C242.363,476.857 239.732,474.07 235.915,472.726C238.244,466.03 239.588,458.522 239.881,450.255C240.236,440.247 239.092,429.13 236.481,417.211C234.199,406.793 231.175,397.562 228.763,391.023C251.584,392.389 298.167,403.187 326.478,410.179C327.734,403.772 328.394,397.151 328.394,390.377Z" style="fill:rgb(102,161,22);fill-rule:nonzero;"/>
                </g>
            </g>
        </g>
        <g transform="matrix(1.5654,0,0,1.5654,1.17568,371.558)">
            <g transform="matrix(-0.457583,0.889167,-0.889167,-0.457583,779.197,-24.566)">
                <g transform="matrix(2.56217,1.52851,-1.52851,2.56217,298.697,-847.479)">
                    <path d="M328.394,390.377C328.394,388.991 328.365,387.611 328.311,386.238L234.684,388.298L327.186,374.609C326.451,369.857 325.388,365.213 324.022,360.7L234.684,384.015L320.081,349.913C317.024,342.82 313.189,336.141 308.682,329.984L237.951,377.708L301.505,321.237C296.517,315.797 290.948,310.897 284.897,306.638L228.375,381.39L275.104,300.537C268.497,296.923 261.448,294.015 254.058,291.917L228.154,377.708L242.784,289.399C237.917,288.599 232.933,288.144 227.86,288.056L226.055,381.39L216,288.527C210.021,289.11 204.192,290.208 198.559,291.776L222.705,376.119L187.353,295.609C179.726,298.727 172.56,302.739 165.984,307.516L223.275,380.654C223.242,380.68 223.204,380.698 223.175,380.728L156.466,315.34C151.469,319.977 146.936,325.107 142.943,330.652L214.81,379.931L136.33,341.12C132.792,347.551 129.925,354.402 127.825,361.581L219.181,387.687L125.051,373.809C124.173,379.201 123.716,384.735 123.716,390.377C123.716,393.802 123.887,397.187 124.215,400.525L219.181,391.242C221.081,390.905 223.63,390.812 226.694,390.923C229.125,397.433 232.276,406.907 234.628,417.655C238.043,433.264 240.315,454.331 234.091,472.21C233.039,471.987 231.926,471.863 230.771,471.863C224.37,471.863 219.181,475.545 219.181,480.087C219.181,484.628 224.37,488.31 230.771,488.31C237.173,488.31 242.363,484.628 242.363,480.087C242.363,476.857 239.732,474.07 235.915,472.726C238.244,466.03 239.588,458.522 239.881,450.255C240.236,440.247 239.092,429.13 236.481,417.211C234.199,406.793 231.175,397.562 228.763,391.023C251.584,392.389 298.167,403.187 326.478,410.179C327.734,403.772 328.394,397.151 328.394,390.377Z" style="fill:rgb(102,161,22);fill-rule:nonzero;"/>
                </g>
                <g transform="matrix(2.95433,0.415924,-0.415924,2.95433,-205.546,-541.721)">
                    <path d="M328.394,390.377C328.394,388.991 328.365,387.611 328.311,386.238L234.684,388.298L327.186,374.609C326.451,369.857 325.388,365.213 324.022,360.7L234.684,384.015L320.081,349.913C317.024,342.82 313.189,336.141 308.682,329.984L237.951,377.708L301.505,321.237C296.517,315.797 290.948,310.897 284.897,306.638L228.375,381.39L275.104,300.537C268.497,296.923 261.448,294.015 254.058,291.917L228.154,377.708L242.784,289.399C237.917,288.599 232.933,288.144 227.86,288.056L226.055,381.39L216,288.527C210.021,289.11 204.192,290.208 198.559,291.776L222.705,376.119L187.353,295.609C179.726,298.727 172.56,302.739 165.984,307.516L223.275,380.654C223.242,380.68 223.204,380.698 223.175,380.728L156.466,315.34C151.469,319.977 146.936,325.107 142.943,330.652L214.81,379.931L136.33,341.12C132.792,347.551 129.925,354.402 127.825,361.581L219.181,387.687L125.051,373.809C124.173,379.201 123.716,384.735 123.716,390.377C123.716,393.802 123.887,397.187 124.215,400.525L219.181,391.242C221.081,390.905 223.63,390.812 226.694,390.923C229.125,397.433 232.276,406.907 234.628,417.655C238.043,433.264 240.315,454.331 234.091,472.21C233.039,471.987 231.926,471.863 230.771,471.863C224.37,471.863 219.181,475.545 219.181,480.087C219.181,484.628 224.37,488.31 230.771,488.31C237.173,488.31 242.363,484.628 242.363,480.087C242.363,476.857 239.732,474.07 235.915,472.726C238.244,466.03 239.588,458.522 239.881,450.255C240.236,440.247 239.092,429.13 236.481,417.211C234.199,406.793 231.175,397.562 228.763,391.023C251.584,392.389 298.167,403.187 326.478,410.179C327.734,403.772 328.394,397.151 328.394,390.377Z" style="fill:rgb(102,161,22);fill-rule:nonzero;"/>
                </g>
                <g transform="matrix(-0.504982,2.94041,-2.94041,-0.504982,1240.2,-133.642)">
                    <path d="M328.394,390.377C328.394,388.991 328.365,387.611 328.311,386.238L234.684,388.298L327.186,374.609C326.451,369.857 325.388,365.213 324.022,360.7L234.684,384.015L320.081,349.913C317.024,342.82 313.189,336.141 308.682,329.984L237.951,377.708L301.505,321.237C296.517,315.797 290.948,310.897 284.897,306.638L228.375,381.39L275.104,300.537C268.497,296.923 261.448,294.015 254.058,291.917L228.154,377.708L242.784,289.399C237.917,288.599 232.933,288.144 227.86,288.056L226.055,381.39L216,288.527C210.021,289.11 204.192,290.208 198.559,291.776L222.705,376.119L187.353,295.609C179.726,298.727 172.56,302.739 165.984,307.516L223.275,380.654C223.242,380.68 223.204,380.698 223.175,380.728L156.466,315.34C151.469,319.977 146.936,325.107 142.943,330.652L214.81,379.931L136.33,341.12C132.792,347.551 129.925,354.402 127.825,361.581L219.181,387.687L125.051,373.809C124.173,379.201 123.716,384.735 123.716,390.377C123.716,393.802 123.887,397.187 124.215,400.525L219.181,391.242C221.081,390.905 223.63,390.812 226.694,390.923C229.125,397.433 232.276,406.907 234.628,417.655C238.043,433.264 240.315,454.331 234.091,472.21C233.039,471.987 231.926,471.863 230.771,471.863C224.37,471.863 219.181,475.545 219.181,480.087C219.181,484.628 224.37,488.31 230.771,488.31C237.173,488.31 242.363,484.628 242.363,480.087C242.363,476.857 239.732,474.07 235.915,472.726C238.244,466.03 239.588,458.522 239.881,450.255C240.236,440.247 239.092,429.13 236.481,417.211C234.199,406.793 231.175,397.562 228.763,391.023C251.584,392.389 298.167,403.187 326.478,410.179C327.734,403.772 328.394,397.151 328.394,390.377Z" style="fill:rgb(102,161,22);fill-rule:nonzero;"/>
                </g>
                <g transform="matrix(2.83741,1.16385,-1.16385,2.83741,297.844,-551.349)">
                    <path d="M140.984,352.479L47.357,354.538L139.859,340.85C139.125,336.097 138.062,331.453 136.696,326.94L47.357,350.255L132.755,316.153C129.698,309.06 125.863,302.381 121.355,296.225L50.625,343.948L114.179,287.478C109.191,282.037 103.622,277.138 97.57,272.878L41.048,347.63L87.776,266.777C81.169,263.163 74.121,260.254 66.731,258.157L40.827,343.948L55.458,255.639C50.59,254.839 45.606,254.383 40.533,254.295L38.728,347.63L28.674,254.768C22.694,255.351 16.865,256.448 11.232,258.016L35.378,342.359L0.026,261.849C-7.6,264.967 -14.766,268.979 -21.342,273.755L36.524,347.63L-30.86,281.58C-35.857,286.217 -40.39,291.347 -44.382,296.893L27.483,346.171L-50.996,307.359C-54.534,313.79 -57.4,320.643 -59.502,327.821L31.854,353.926L-62.274,340.049C-63.152,345.441 -63.61,350.976 -63.61,356.617C-63.61,360.042 -63.439,363.427 -63.11,366.766L31.854,357.482C47.376,354.728 105.884,368.203 139.151,376.419C140.408,370.012 141.067,363.392 141.067,356.617C141.067,355.23 141.039,353.852 140.984,352.479Z" style="fill:rgb(67,112,19);fill-rule:nonzero;"/>
                </g>
                <g transform="matrix(3.00666,0.604539,-0.604539,3.00666,463.816,-331.216)">
                    <path d="M140.984,352.479L47.357,354.538L139.859,340.85C139.125,336.097 138.062,331.453 136.696,326.94L47.357,350.255L132.755,316.153C129.698,309.06 125.863,302.381 121.355,296.225L50.625,343.948L114.179,287.478C109.191,282.037 103.622,277.138 97.57,272.878L41.048,347.63L87.776,266.777C81.169,263.163 74.121,260.254 66.731,258.157L40.827,343.948L55.458,255.639C50.59,254.839 45.606,254.383 40.533,254.295L38.728,347.63L28.674,254.768C22.694,255.351 16.865,256.448 11.232,258.016L35.378,342.359L0.026,261.849C-7.6,264.967 -14.766,268.979 -21.342,273.755L36.524,347.63L-30.86,281.58C-35.857,286.217 -40.39,291.347 -44.382,296.893L27.483,346.171L-50.996,307.359C-54.534,313.79 -57.4,320.643 -59.502,327.821L31.854,353.926L-62.274,340.049C-63.152,345.441 -63.61,350.976 -63.61,356.617C-63.61,360.042 -63.439,363.427 -63.11,366.766L31.854,357.482C47.376,354.728 105.884,368.203 139.151,376.419C140.408,370.012 141.067,363.392 141.067,356.617C141.067,355.23 141.039,353.852 140.984,352.479Z" style="fill:rgb(67,112,19);fill-rule:nonzero;"/>
                </g>
                <g transform="matrix(2.56217,1.52851,-1.52851,2.56217,40.7295,-625.274)">
                    <path d="M328.394,390.377C328.394,388.991 328.365,387.611 328.311,386.238L234.684,388.298L327.186,374.609C326.451,369.857 325.388,365.213 324.022,360.7L234.684,384.015L320.081,349.913C317.024,342.82 313.189,336.141 308.682,329.984L237.951,377.708L301.505,321.237C296.517,315.797 290.948,310.897 284.897,306.638L228.375,381.39L275.104,300.537C268.497,296.923 261.448,294.015 254.058,291.917L228.154,377.708L242.784,289.399C237.917,288.599 232.933,288.144 227.86,288.056L226.055,381.39L216,288.527C210.021,289.11 204.192,290.208 198.559,291.776L222.705,376.119L187.353,295.609C179.726,298.727 172.56,302.739 165.984,307.516L223.275,380.654C223.242,380.68 223.204,380.698 223.175,380.728L156.466,315.34C151.469,319.977 146.936,325.107 142.943,330.652L214.81,379.931L136.33,341.12C132.792,347.551 129.925,354.402 127.825,361.581L219.181,387.687L125.051,373.809C124.173,379.201 123.716,384.735 123.716,390.377C123.716,393.802 123.887,397.187 124.215,400.525L219.181,391.242C221.081,390.905 223.63,390.812 226.694,390.923C229.125,397.433 232.276,406.907 234.628,417.655C238.043,433.264 240.315,454.331 234.091,472.21C233.039,471.987 231.926,471.863 230.771,471.863C224.37,471.863 219.181,475.545 219.181,480.087C219.181,484.628 224.37,488.31 230.771,488.31C237.173,488.31 242.363,484.628 242.363,480.087C242.363,476.857 239.732,474.07 235.915,472.726C238.244,466.03 239.588,458.522 239.881,450.255C240.236,440.247 239.092,429.13 236.481,417.211C234.199,406.793 231.175,397.562 228.763,391.023C251.584,392.389 298.167,403.187 326.478,410.179C327.734,403.772 328.394,397.151 328.394,390.377Z" style="fill:rgb(102,161,22);fill-rule:nonzero;"/>
                </g>
            </g>
        </g>
    </g>
</svg>
